<svg width="208" height="45" viewBox="0 0 208 45" fill="none" xmlns="http://www.w3.org/2000/svg">
<g clip-path="url(#clip0_959_40788)">
<path d="M31.7944 16.1709V31.7468H18.687C15.2695 31.7468 12.1124 33.5685 10.3984 36.5334L5.49617 45.0051H38.2179C41.9741 45.0051 45.0217 41.9516 45.0217 38.1881V25.0446C45.0217 22.0641 43.0577 19.4437 40.1976 18.6138L31.7892 16.1709H31.7944Z" fill="white"/>
<path d="M13.2273 28.829V13.2531H26.3347C29.7522 13.2531 32.9093 11.4314 34.6233 8.46654L39.5255 0H6.80379C3.04764 0 0 3.05359 0 6.81708V19.9606C0 22.9411 1.96403 25.5614 4.82412 26.3914L13.2325 28.8342L13.2273 28.829Z" fill="white"/>
<path d="M68.9131 33.2709C64.5214 33.2709 61.3643 32.7385 59.4524 31.6737C57.5405 30.6088 56.5819 28.547 56.5819 25.4882H61.7811C61.7811 27.1115 62.4583 28.1555 63.8181 28.6096C65.1778 29.0638 66.9803 29.2934 69.2257 29.2934C71.1584 29.2934 72.6744 29.1212 73.7633 28.7767C74.8521 28.4322 75.3991 27.6596 75.3991 26.4643C75.3991 25.0184 74.6593 24.1989 73.1746 23.9953C71.695 23.7917 69.7779 23.6351 67.4283 23.5151C64.5422 23.3846 62.0207 22.8992 59.864 22.0535C57.7072 21.2079 56.6288 19.3706 56.6288 16.531C56.6288 14.1246 57.5769 12.423 59.4784 11.4208C61.38 10.4186 64.2348 9.91748 68.0483 9.91748C72.6119 9.91748 75.8367 10.4551 77.733 11.5356C79.6293 12.6161 80.5775 14.5788 80.5775 17.4288H75.3939C75.3939 15.8681 74.7166 14.8815 73.3569 14.4744C71.9972 14.0672 70.1582 13.8584 67.8295 13.8584C65.8498 13.8584 64.3651 14.0255 63.3752 14.3543C62.3854 14.6884 61.8905 15.4766 61.8905 16.7241C61.8905 18.0499 62.6928 18.8434 64.2974 19.1043C65.9019 19.3653 67.8607 19.5585 70.1738 19.689C73.06 19.8456 75.5189 20.2736 77.5559 20.9678C79.5928 21.6621 80.6087 23.395 80.6087 26.1668C80.6087 28.9385 79.7491 30.6506 78.0247 31.6945C76.3004 32.7437 73.2631 33.2657 68.9027 33.2657L68.9131 33.2709Z" fill="white"/>
<path d="M105.089 28.6669L104.755 28.4737C104.063 29.5908 103.463 30.4103 102.963 30.9323C102.458 31.4542 101.822 31.9031 101.051 32.2894C100.28 32.6757 99.3634 32.9471 98.3111 33.1194C97.2535 33.2864 96.0761 33.3751 94.7789 33.3751C93.8725 33.3751 92.9399 33.3177 91.9814 33.1977C91.0176 33.0828 90.1059 32.874 89.2411 32.5713C88.3763 32.2738 87.6001 31.8614 86.9176 31.3342C86.2351 30.807 85.6933 30.1388 85.2974 29.3246C84.9015 28.5103 84.7035 27.482 84.7035 26.2344C84.7035 25.0495 84.9067 24.0734 85.3078 23.3009C85.709 22.5284 86.2456 21.8707 86.9176 21.333C87.5896 20.7954 88.3867 20.3778 89.3088 20.0855C90.2309 19.7932 91.1895 19.5844 92.1793 19.4591C93.1692 19.3338 94.133 19.2764 95.0707 19.2764H103.792V18.0654C103.792 16.8805 103.526 15.9827 102.995 15.3616C102.463 14.7456 101.744 14.3385 100.833 14.1506C99.9209 13.9626 98.582 13.8687 96.8159 13.8687C95.2634 13.8687 94.0079 13.9679 93.0493 14.1714C92.0908 14.375 91.3302 14.7456 90.7623 15.2833C90.1945 15.8209 89.8975 16.6561 89.8715 17.7888H84.839C84.9067 15.8261 85.3547 14.328 86.1883 13.2945C87.0218 12.261 88.0064 11.525 89.1421 11.0918C90.2778 10.6585 91.4239 10.3558 92.5909 10.1835C93.7526 10.0165 95.253 9.92773 97.0868 9.92773C100.51 9.92773 102.916 10.1992 104.307 10.7368C105.698 11.2744 106.886 12.1775 107.871 13.4407C108.855 14.7039 109.345 16.4316 109.345 18.6292V33.0828H103.995V31.0158C103.995 30.7965 104.026 30.5721 104.094 30.3424C104.162 30.1127 104.255 29.9092 104.38 29.7265L105.099 28.6721L105.089 28.6669ZM95.8157 29.5438C96.7638 29.5438 97.6859 29.4812 98.582 29.3507C99.478 29.2202 100.286 28.9853 101.015 28.6408C101.739 28.2963 102.359 27.8474 102.875 27.2941C103.39 26.7408 103.693 26.1666 103.781 25.5663L103.969 22.758H95.5343C94.8415 22.758 94.1798 22.805 93.5495 22.9042C92.9191 23.0034 92.3565 23.1652 91.872 23.4001C91.3875 23.635 91.002 23.9742 90.7258 24.4127C90.4445 24.8564 90.3039 25.4254 90.3039 26.13C90.3039 26.8817 90.4602 27.4872 90.7727 27.9361C91.0853 28.385 91.5073 28.7243 92.0283 28.9592C92.5544 29.1941 93.1483 29.3507 93.8047 29.429C94.4664 29.5073 95.1332 29.5438 95.8157 29.5438Z" fill="white"/>
<path d="M131.002 19.6942C131.002 17.601 130.642 16.1656 129.928 15.3931C129.215 14.6205 127.792 14.2343 125.667 14.2343C123.541 14.2343 121.963 14.8137 120.921 15.9725C120.072 16.9225 119.572 18.1126 119.431 19.5428V33.0778H113.862V9.91748H119.431V12.4543C119.431 12.543 119.41 12.6422 119.363 12.7466L118.306 14.2499L118.472 14.6205C118.863 13.9472 119.363 13.279 119.962 12.6318C121.687 10.8257 124.229 9.9227 127.594 9.9227C130.96 9.9227 133.169 10.6274 134.523 12.0367C135.878 13.4461 136.555 15.9986 136.555 19.6942H131.002Z" fill="white"/>
<path d="M156.831 20.9782C156.831 18.4831 156.508 16.7345 155.867 15.7323C155.226 14.7301 154.002 14.229 152.205 14.229C150.407 14.229 148.985 14.8293 148.011 16.0246C147.24 16.9746 146.776 18.3056 146.62 20.023V33.0725H141.051V10.1158H146.62V12.7518C146.62 12.8823 146.599 12.9814 146.552 13.0441L145.427 15.0172L145.526 15.1163C145.896 14.3908 146.354 13.6913 146.901 13.0284C148.589 10.9718 150.871 9.94873 153.742 9.94873H153.908C157.06 9.98527 159.259 10.8987 160.499 12.6787C160.801 13.1067 161.061 13.5817 161.285 14.1037C161.52 13.7905 161.775 13.4878 162.056 13.185C164.015 11.0292 166.5 9.94873 169.522 9.94873H169.688C172.793 9.98527 174.971 10.8987 176.211 12.6891C177.451 14.4795 178.071 17.0216 178.071 20.3257V33.0829H172.517V20.9886C172.517 18.4936 172.199 16.7449 171.569 15.7427C170.939 14.7405 169.735 14.2394 167.969 14.2394C166 14.2394 164.567 14.8397 163.661 16.035C162.921 17.0216 162.494 18.41 162.369 20.19V33.0829H156.815V20.9886L156.831 20.9782Z" fill="white"/>
<path d="M195.07 33.2709C191.069 33.2709 187.906 32.3365 185.593 30.4731C183.28 28.6044 182.124 25.6082 182.124 21.4689C182.124 17.3296 183.28 14.396 185.593 12.5848C187.906 10.7683 191.069 9.86523 195.07 9.86523C199.071 9.86523 202.228 10.7735 204.536 12.5848C206.843 14.4013 208 17.3609 208 21.4689C208 25.5769 206.843 28.6044 204.536 30.4731C202.228 32.3417 199.071 33.2709 195.07 33.2709ZM195.07 29.0533C197.529 29.0533 199.378 28.5313 200.613 27.4925C201.847 26.4538 202.467 24.465 202.467 21.5211C202.467 18.5771 201.847 16.6197 200.613 15.6018C199.378 14.5787 197.529 14.0724 195.07 14.0724C192.611 14.0724 190.777 14.5839 189.537 15.6018C188.297 16.6249 187.677 18.598 187.677 21.5211C187.677 24.4442 188.297 26.4486 189.537 27.4925C190.777 28.5313 192.621 29.0533 195.07 29.0533Z" fill="white"/>
</g>
<defs>
<clipPath id="clip0_959_40788">
<rect width="208" height="45" fill="white"/>
</clipPath>
</defs>
</svg>
