<svg width="208" height="46" viewBox="0 0 208 46" fill="none" xmlns="http://www.w3.org/2000/svg">
<g clip-path="url(#clip0_1220_22044)">
<path d="M31.7945 16.671V32.2469H18.687C15.2695 32.2469 12.1125 34.0686 10.3985 37.0335L5.49622 45.5052H38.2179C41.9741 45.5052 45.0217 42.4516 45.0217 38.6882V25.5447C45.0217 22.5641 43.0577 19.9438 40.1976 19.1139L31.7893 16.671H31.7945Z" fill="#007BFF"/>
<path d="M13.2273 29.329V13.7531H26.3347C29.7522 13.7531 32.9093 11.9314 34.6232 8.96654L39.5255 0.5H6.80379C3.04764 0.5 0 3.55359 0 7.31708V20.4606C0 23.4411 1.96403 26.0614 4.82412 26.8914L13.2325 29.3343L13.2273 29.329Z" fill="#007BFF"/>
<path d="M68.9131 33.7706C64.5214 33.7706 61.3644 33.2382 59.4524 32.1733C57.5405 31.1085 56.5819 29.0466 56.5819 25.9878H61.7811C61.7811 27.6112 62.4584 28.6552 63.8181 29.1093C65.1778 29.5634 66.9803 29.7931 69.2257 29.7931C71.1585 29.7931 72.6745 29.6208 73.7633 29.2763C74.8521 28.9318 75.3991 28.1593 75.3991 26.9639C75.3991 25.518 74.6593 24.6985 73.1746 24.495C71.6951 24.2914 69.7779 24.1348 67.4284 24.0147C64.5422 23.8842 62.0208 23.3988 59.864 22.5532C57.7072 21.7076 56.6288 19.8702 56.6288 17.0306C56.6288 14.6243 57.5769 12.9226 59.4785 11.9204C61.38 10.9182 64.2349 10.4171 68.0483 10.4171C72.612 10.4171 75.8367 10.9548 77.733 12.0353C79.6293 13.1158 80.5775 15.0784 80.5775 17.9284H75.3939C75.3939 16.3677 74.7166 15.3812 73.3569 14.974C71.9972 14.5669 70.1582 14.3581 67.8295 14.3581C65.8498 14.3581 64.3651 14.5251 63.3753 14.854C62.3854 15.188 61.8905 15.9762 61.8905 17.2238C61.8905 18.5496 62.6928 19.343 64.2974 19.604C65.9019 19.865 67.8608 20.0581 70.1738 20.1886C73.06 20.3452 75.5189 20.7732 77.5559 21.4675C79.5929 22.1617 80.6087 23.8947 80.6087 26.6664C80.6087 29.4381 79.7492 31.1502 78.0248 32.1942C76.3004 33.2434 73.2632 33.7654 68.9027 33.7654L68.9131 33.7706Z" fill="#000F1D"/>
<path d="M105.089 29.1672L104.755 28.9741C104.063 30.0911 103.463 30.9106 102.963 31.4326C102.458 31.9546 101.822 32.4035 101.051 32.7898C100.28 33.176 99.3634 33.4475 98.3111 33.6197C97.2535 33.7867 96.0761 33.8755 94.7789 33.8755C93.8725 33.8755 92.9399 33.8181 91.9814 33.698C91.0176 33.5832 90.1059 33.3744 89.2411 33.0716C88.3763 32.7741 87.6001 32.3617 86.9176 31.8345C86.2351 31.3073 85.6933 30.6392 85.2974 29.8249C84.9015 29.0106 84.7035 27.9823 84.7035 26.7348C84.7035 25.5499 84.9067 24.5738 85.3078 23.8012C85.709 23.0287 86.2455 22.371 86.9176 21.8334C87.5896 21.2957 88.3867 20.8781 89.3088 20.5858C90.2309 20.2935 91.1895 20.0847 92.1793 19.9595C93.1692 19.8342 94.1329 19.7768 95.0707 19.7768H103.792V18.5658C103.792 17.3809 103.526 16.4831 102.995 15.8619C102.463 15.246 101.744 14.8388 100.833 14.6509C99.9208 14.463 98.582 14.369 96.8159 14.369C95.2634 14.369 94.0079 14.4682 93.0493 14.6718C92.0908 14.8754 91.3302 15.246 90.7623 15.7836C90.1945 16.3213 89.8975 17.1564 89.8715 18.2891H84.8389C84.9067 16.3265 85.3547 14.8284 86.1882 13.7949C87.0218 12.7613 88.0064 12.0253 89.1421 11.5921C90.2778 11.1589 91.4239 10.8561 92.5909 10.6839C93.7526 10.5168 95.253 10.4281 97.0868 10.4281C100.51 10.4281 102.916 10.6995 104.307 11.2372C105.698 11.7748 106.886 12.6778 107.871 13.941C108.855 15.2042 109.345 16.932 109.345 19.1295V33.5832H103.995V31.5161C103.995 31.2969 104.026 31.0724 104.094 30.8428C104.161 30.6131 104.255 30.4095 104.38 30.2268L105.099 29.1724L105.089 29.1672ZM95.8157 30.0441C96.7638 30.0441 97.6859 29.9815 98.582 29.851C99.478 29.7205 100.286 29.4856 101.015 29.1411C101.739 28.7966 102.359 28.3477 102.875 27.7944C103.39 27.2411 103.693 26.6669 103.781 26.0666L103.969 23.2584H95.5343C94.8415 23.2584 94.1798 23.3054 93.5495 23.4045C92.9191 23.5037 92.3565 23.6655 91.872 23.9004C91.3875 24.1353 91.0019 24.4746 90.7258 24.9131C90.4445 25.3567 90.3039 25.9257 90.3039 26.6304C90.3039 27.382 90.4601 27.9875 90.7727 28.4364C91.0853 28.8853 91.5073 29.2246 92.0282 29.4595C92.5544 29.6944 93.1483 29.851 93.8047 29.9293C94.4664 30.0076 95.1332 30.0441 95.8157 30.0441Z" fill="#000F1D"/>
<path d="M131.002 20.1944C131.002 18.1012 130.642 16.6658 129.928 15.8932C129.215 15.1207 127.792 14.7344 125.667 14.7344C123.541 14.7344 121.963 15.3138 120.921 16.4726C120.072 17.4226 119.572 18.6127 119.431 20.043V33.5779H113.862V10.4176H119.431V12.9545C119.431 13.0432 119.41 13.1424 119.363 13.2468L118.306 14.7501L118.472 15.1207C118.863 14.4473 119.363 13.7792 119.962 13.1319C121.687 11.3259 124.229 10.4229 127.594 10.4229C130.96 10.4229 133.169 11.1275 134.523 12.5369C135.878 13.9462 136.555 16.4987 136.555 20.1944H131.002Z" fill="#000F1D"/>
<path d="M156.831 21.4784C156.831 18.9834 156.508 17.2347 155.867 16.2325C155.226 15.2303 154.002 14.7292 152.205 14.7292C150.407 14.7292 148.985 15.3295 148.011 16.5248C147.24 17.4748 146.776 18.8059 146.62 20.5232V33.5727H141.051V10.616H146.62V13.252C146.62 13.3825 146.599 13.4817 146.552 13.5443L145.427 15.5174L145.526 15.6166C145.896 14.891 146.354 14.1916 146.901 13.5287C148.589 11.472 150.871 10.449 153.742 10.449H153.908C157.06 10.4855 159.259 11.399 160.498 13.1789C160.801 13.607 161.061 14.082 161.285 14.6039C161.52 14.2907 161.775 13.988 162.056 13.6852C164.015 11.5295 166.5 10.449 169.522 10.449H169.688C172.793 10.4855 174.971 11.399 176.211 13.1894C177.451 14.9798 178.071 17.5218 178.071 20.826V33.5832H172.517V21.4889C172.517 18.9938 172.199 17.2452 171.569 16.243C170.939 15.2408 169.735 14.7397 167.969 14.7397C166 14.7397 164.567 15.3399 163.661 16.5353C162.921 17.5218 162.494 18.9103 162.369 20.6902V33.5832H156.815V21.4889L156.831 21.4784Z" fill="#000F1D"/>
<path d="M195.07 33.7711C191.069 33.7711 187.906 32.8367 185.593 30.9733C183.28 29.1046 182.124 26.1084 182.124 21.9691C182.124 17.8298 183.28 14.8962 185.593 13.085C187.906 11.2685 191.069 10.3654 195.07 10.3654C199.071 10.3654 202.228 11.2737 204.536 13.085C206.843 14.9015 208 17.8611 208 21.9691C208 26.0771 206.843 29.1046 204.536 30.9733C202.228 32.842 199.071 33.7711 195.07 33.7711ZM195.07 29.5535C197.529 29.5535 199.378 29.0315 200.613 27.9928C201.847 26.954 202.467 24.9653 202.467 22.0213C202.467 19.0773 201.847 17.1199 200.613 16.102C199.378 15.0789 197.529 14.5726 195.07 14.5726C192.611 14.5726 190.777 15.0842 189.537 16.102C188.297 17.1251 187.677 19.0982 187.677 22.0213C187.677 24.9444 188.297 26.9488 189.537 27.9928C190.777 29.0315 192.621 29.5535 195.07 29.5535Z" fill="#000F1D"/>
</g>
<defs>
<clipPath id="clip0_1220_22044">
<rect width="208" height="45" fill="white" transform="translate(0 0.5)"/>
</clipPath>
</defs>
</svg>
