<svg aria-hidden="true" style="position: absolute; width: 0; height: 0; overflow: hidden;" version="1.1"
  xmlns="http://www.w3.org/2000/svg" xmlns:xlink="http://www.w3.org/1999/xlink">
  <defs>
  
    <symbol id="logo-big" viewBox="0 0 286 32">
      <path fill="#e6533c" style="fill: var(--color1, #e6533c)"
        d="M80.941 13.714c1.040 0 1.882 0.843 1.882 1.882v0.807c0 1.040-0.843 1.882-1.882 1.882h-2.151c-1.039 0-1.882 0.843-1.882 1.882v5.378c0 1.040-0.843 1.882-1.882 1.882h-2.151c-1.040 0-1.882 0.843-1.882 1.882v0.807c0 1.040-0.843 1.882-1.882 1.882h-5.109c-1.040 0-1.882-0.843-1.882-1.882v-9.95c0-1.040-0.843-1.882-1.882-1.882h-37.647c-1.040 0-1.882 0.843-1.882 1.882v9.95c0 1.040-0.843 1.882-1.882 1.882h-5.109c-1.040 0-1.882-0.843-1.882-1.882v-0.807c0-1.040-0.843-1.882-1.882-1.882h-2.151c-1.040 0-1.882-0.843-1.882-1.882v-5.378c0-1.040-0.843-1.882-1.882-1.882h-2.151c-1.040 0-1.882-0.843-1.882-1.882v-0.807c0-1.040 0.843-1.882 1.882-1.882h2.151c1.040 0 1.882-0.843 1.882-1.882v-5.378c0-1.040 0.843-1.882 1.882-1.882h2.151c1.040 0 1.882-0.843 1.882-1.882v-0.807c0-1.040 0.843-1.882 1.882-1.882h5.109c1.040 0 1.882 0.843 1.882 1.882v9.95c0 1.040 0.843 1.882 1.882 1.882h37.647c1.040 0 1.882-0.843 1.882-1.882v-9.95c0-1.040 0.843-1.882 1.882-1.882h5.109c1.040 0 1.882 0.843 1.882 1.882v0.807c0 1.040 0.843 1.882 1.882 1.882h2.151c1.040 0 1.882 0.843 1.882 1.882v5.378c0 1.040 0.843 1.882 1.882 1.882h2.151z">
      </path>
      <path fill="#efede8" style="fill: var(--color2, #efede8)"
        d="M97.882 29.873v-26.353h9.412c1.431 0 2.723 0.358 3.878 1.073 1.167 0.715 2.089 1.675 2.767 2.88s1.016 2.529 1.016 3.972c0 1.481-0.351 2.824-1.054 4.028-0.69 1.192-1.619 2.146-2.786 2.861-1.167 0.703-2.441 1.054-3.821 1.054h-4.819v10.485h-4.593zM102.475 14.795h4.329c0.653 0 1.249-0.163 1.788-0.489s0.966-0.765 1.28-1.318c0.326-0.552 0.489-1.167 0.489-1.845 0-0.69-0.163-1.311-0.489-1.864-0.314-0.552-0.74-0.991-1.28-1.318s-1.136-0.489-1.788-0.489h-4.329v7.322z">
      </path>
      <path fill="#efede8" style="fill: var(--color2, #efede8)"
        d="M125.393 30.362c-1.732 0-3.313-0.446-4.744-1.336-1.418-0.891-2.554-2.083-3.407-3.576-0.841-1.506-1.261-3.169-1.261-4.988 0-1.38 0.245-2.667 0.734-3.859 0.489-1.205 1.161-2.259 2.014-3.162 0.866-0.916 1.87-1.631 3.012-2.146s2.359-0.772 3.652-0.772c1.732 0 3.307 0.445 4.725 1.336 1.431 0.891 2.566 2.089 3.407 3.595 0.853 1.506 1.28 3.175 1.28 5.007 0 1.368-0.245 2.648-0.734 3.84s-1.167 2.246-2.033 3.162c-0.853 0.904-1.851 1.613-2.993 2.127-1.129 0.514-2.347 0.772-3.652 0.772zM125.393 25.769c0.916 0 1.738-0.245 2.466-0.734s1.299-1.136 1.713-1.939c0.427-0.803 0.64-1.681 0.64-2.635 0-0.979-0.219-1.87-0.659-2.673-0.427-0.816-1.010-1.462-1.751-1.939-0.728-0.489-1.531-0.734-2.409-0.734-0.904 0-1.719 0.245-2.447 0.734s-1.305 1.142-1.732 1.958c-0.427 0.816-0.64 1.7-0.64 2.654 0 0.991 0.22 1.889 0.659 2.692s1.023 1.443 1.751 1.92c0.741 0.464 1.544 0.696 2.409 0.696z">
      </path>
      <path fill="#efede8" style="fill: var(--color2, #efede8)"
        d="M146.566 29.873h-4.555l-6.287-18.824h4.499l4.085 12.179 4.066-12.179h4.536l4.066 12.179 4.085-12.179h4.499l-6.287 18.824h-4.555l-4.085-12.235-4.066 12.235z">
      </path>
      <path fill="#efede8" style="fill: var(--color2, #efede8)"
        d="M175.907 30.362c-1.732 0-3.313-0.446-4.744-1.336-1.418-0.891-2.554-2.089-3.407-3.595-0.841-1.506-1.261-3.169-1.261-4.988 0-1.368 0.245-2.648 0.734-3.84 0.489-1.205 1.161-2.259 2.014-3.162 0.866-0.916 1.87-1.631 3.012-2.146s2.359-0.772 3.652-0.772c1.468 0 2.811 0.314 4.028 0.941 1.23 0.615 2.271 1.462 3.125 2.541s1.474 2.309 1.864 3.689c0.389 1.38 0.477 2.824 0.264 4.329h-13.76c0.176 0.703 0.464 1.336 0.866 1.901 0.401 0.552 0.91 0.998 1.525 1.336 0.615 0.326 1.311 0.496 2.089 0.508 0.803 0.013 1.531-0.176 2.184-0.565 0.665-0.401 1.217-0.941 1.656-1.619l4.687 1.092c-0.766 1.669-1.908 3.037-3.426 4.104-1.518 1.054-3.219 1.581-5.101 1.581zM171.277 18.579h9.261c-0.138-0.753-0.433-1.431-0.885-2.033-0.439-0.615-0.985-1.104-1.638-1.468s-1.355-0.546-2.108-0.546-1.449 0.182-2.089 0.546c-0.64 0.351-1.186 0.835-1.638 1.449-0.439 0.602-0.741 1.286-0.904 2.052z">
      </path>
      <path fill="#efede8" style="fill: var(--color2, #efede8)"
        d="M188.269 29.873l-0.019-18.824h4.593l0.019 1.675c0.64-0.678 1.404-1.211 2.296-1.6 0.89-0.402 1.85-0.602 2.88-0.602 0.689 0 1.38 0.1 2.071 0.301l-1.807 4.631c-0.478-0.188-0.954-0.282-1.431-0.282-0.742 0-1.419 0.182-2.033 0.546-0.602 0.351-1.086 0.834-1.449 1.449-0.352 0.602-0.527 1.274-0.527 2.014v10.692h-4.593z">
      </path>
      <path fill="#efede8" style="fill: var(--color2, #efede8)"
        d="M202.221 29.873v-26.353h9.412c1.431 0 2.722 0.358 3.878 1.073 1.167 0.715 2.089 1.675 2.767 2.88s1.016 2.529 1.016 3.972c0 1.481-0.352 2.824-1.054 4.028-0.691 1.192-1.619 2.146-2.786 2.861-1.167 0.703-2.441 1.054-3.821 1.054h-4.819v10.485h-4.593zM206.814 14.795h4.329c0.651 0 1.248-0.163 1.788-0.489 0.538-0.326 0.966-0.765 1.28-1.318 0.326-0.552 0.489-1.167 0.489-1.845 0-0.69-0.164-1.311-0.489-1.864-0.314-0.552-0.742-0.991-1.28-1.318-0.54-0.326-1.137-0.489-1.788-0.489h-4.329v7.322z">
      </path>
      <path fill="#efede8" style="fill: var(--color2, #efede8)"
        d="M221.248 22.908v-11.859h4.593v10.654c0 0.74 0.181 1.418 0.546 2.033 0.363 0.602 0.847 1.086 1.449 1.449 0.614 0.351 1.286 0.527 2.014 0.527 0.753 0 1.431-0.176 2.033-0.527 0.6-0.364 1.084-0.847 1.449-1.449 0.363-0.615 0.546-1.293 0.546-2.033v-10.654h4.593l0.019 18.824h-4.595l-0.017-1.713c-0.653 0.678-1.425 1.217-2.315 1.619-0.892 0.389-1.845 0.584-2.861 0.584-1.368 0-2.618-0.333-3.748-0.998-1.128-0.678-2.031-1.575-2.709-2.692-0.666-1.129-0.998-2.384-0.998-3.765z">
      </path>
      <path fill="#efede8" style="fill: var(--color2, #efede8)" d="M242.368 29.873v-28.235h4.593v28.235h-4.593z"></path>
      <path fill="#efede8" style="fill: var(--color2, #efede8)"
        d="M257.039 30.212c-0.979-0.063-1.928-0.257-2.842-0.584-0.904-0.339-1.707-0.797-2.409-1.374-0.704-0.577-1.242-1.267-1.619-2.071l3.878-1.656c0.151 0.251 0.395 0.521 0.734 0.809 0.339 0.276 0.74 0.508 1.205 0.696 0.476 0.188 0.998 0.282 1.562 0.282 0.476 0 0.928-0.063 1.355-0.188 0.439-0.138 0.791-0.345 1.054-0.621 0.275-0.276 0.414-0.634 0.414-1.073 0-0.464-0.164-0.822-0.489-1.073-0.314-0.264-0.715-0.458-1.205-0.584-0.478-0.138-0.941-0.264-1.393-0.376-1.193-0.238-2.304-0.609-3.332-1.111-1.016-0.502-1.839-1.148-2.466-1.939-0.616-0.803-0.922-1.769-0.922-2.899 0-1.242 0.326-2.315 0.979-3.219 0.664-0.904 1.525-1.6 2.579-2.089 1.065-0.489 2.214-0.734 3.445-0.734 1.493 0 2.861 0.314 4.104 0.941 1.254 0.615 2.246 1.487 2.974 2.616l-3.633 2.146c-0.177-0.301-0.422-0.577-0.734-0.828-0.314-0.264-0.672-0.477-1.073-0.64-0.403-0.176-0.823-0.276-1.261-0.301-0.565-0.025-1.080 0.025-1.544 0.151-0.465 0.125-0.841 0.339-1.129 0.64-0.277 0.301-0.414 0.703-0.414 1.205 0 0.477 0.188 0.834 0.565 1.073 0.376 0.226 0.828 0.402 1.355 0.527 0.538 0.125 1.054 0.264 1.544 0.414 1.103 0.364 2.138 0.809 3.106 1.336 0.979 0.527 1.762 1.173 2.353 1.939 0.589 0.766 0.872 1.681 0.847 2.748 0 1.217-0.365 2.284-1.092 3.2-0.728 0.904-1.67 1.594-2.824 2.071-1.143 0.477-2.366 0.665-3.671 0.565z">
      </path>
      <path fill="#efede8" style="fill: var(--color2, #efede8)"
        d="M275.834 30.362c-1.732 0-3.313-0.446-4.744-1.336-1.419-0.891-2.554-2.089-3.407-3.595-0.841-1.506-1.261-3.169-1.261-4.988 0-1.368 0.245-2.648 0.734-3.84 0.489-1.205 1.16-2.259 2.014-3.162 0.866-0.916 1.869-1.631 3.012-2.146 1.141-0.515 2.359-0.772 3.652-0.772 1.468 0 2.81 0.314 4.028 0.941 1.229 0.615 2.27 1.462 3.125 2.541 0.853 1.079 1.474 2.309 1.864 3.689 0.388 1.38 0.476 2.824 0.264 4.329h-13.76c0.175 0.703 0.463 1.336 0.866 1.901 0.401 0.552 0.909 0.998 1.525 1.336 0.614 0.326 1.31 0.496 2.089 0.508 0.802 0.013 1.53-0.176 2.184-0.565 0.664-0.401 1.216-0.941 1.656-1.619l4.687 1.092c-0.766 1.669-1.909 3.037-3.426 4.104-1.519 1.054-3.219 1.581-5.101 1.581zM271.204 18.579h9.261c-0.139-0.753-0.433-1.431-0.885-2.033-0.44-0.615-0.986-1.104-1.638-1.468-0.653-0.364-1.355-0.546-2.108-0.546s-1.449 0.182-2.089 0.546c-0.64 0.351-1.186 0.835-1.638 1.449-0.44 0.602-0.742 1.286-0.904 2.052z">
      </path>
    </symbol>

    <symbol id="logo-small" viewBox="0 0 310 32">
      <path fill="#e6533c" style="fill: var(--color1, #e6533c)"
        d="M86.33 13.714c1.263 0 2.286 1.023 2.286 2.286s-1.023 2.286-2.286 2.286h-1.582c-1.359 0-2.462 1.102-2.462 2.462v4.22c0 1.359-1.102 2.462-2.462 2.462h-1.583c-1.262 0-2.286 1.023-2.286 2.286s-1.023 2.286-2.286 2.286h-4.747c-1.359 0-2.462-1.102-2.462-2.462v-8.791c0-1.359-1.102-2.462-2.462-2.462h-39.385c-1.359 0-2.462 1.102-2.462 2.462v8.791c0 1.36-1.102 2.462-2.462 2.462h-4.747c-1.262 0-2.286-1.023-2.286-2.286s-1.023-2.286-2.286-2.286h-1.582c-1.359 0-2.462-1.102-2.462-2.462v-4.22c0-1.359-1.102-2.462-2.462-2.462h-1.582c-1.262 0-2.286-1.023-2.286-2.286s1.023-2.286 2.286-2.286h1.582c1.359 0 2.462-1.102 2.462-2.462v-4.22c0-1.359 1.102-2.462 2.462-2.462h1.582c1.262 0 2.286-1.023 2.286-2.286s1.023-2.286 2.286-2.286h4.747c1.359 0 2.462 1.102 2.462 2.462v8.791c0 1.359 1.102 2.462 2.462 2.462h39.385c1.359 0 2.462-1.102 2.462-2.462v-8.791c0-1.359 1.102-2.462 2.462-2.462h4.747c1.262 0 2.286 1.023 2.286 2.286s1.023 2.286 2.286 2.286h1.583c1.359 0 2.462 1.102 2.462 2.462v4.22c0 1.359 1.102 2.462 2.462 2.462h1.582z">
      </path>
      <path fill="#efede8" style="fill: var(--color2, #efede8)"
        d="M108.308 30.266v-27.099h10.14c1.541 0 2.934 0.368 4.178 1.103 1.257 0.736 2.251 1.723 2.981 2.962s1.095 2.6 1.095 4.084c0 1.523-0.379 2.903-1.136 4.142-0.744 1.226-1.744 2.207-3.002 2.942-1.257 0.723-2.63 1.084-4.117 1.084h-5.192v10.782h-4.948zM113.256 14.761h4.665c0.703 0 1.345-0.168 1.927-0.503s1.041-0.787 1.379-1.355c0.352-0.568 0.527-1.2 0.527-1.897 0-0.71-0.176-1.349-0.527-1.916-0.338-0.568-0.798-1.019-1.379-1.355s-1.224-0.503-1.927-0.503h-4.665v7.53z">
      </path>
      <path fill="#efede8" style="fill: var(--color2, #efede8)"
        d="M137.947 30.769c-1.866 0-3.569-0.458-5.111-1.374-1.528-0.916-2.751-2.142-3.671-3.678-0.906-1.549-1.359-3.258-1.359-5.13 0-1.419 0.264-2.742 0.791-3.968 0.527-1.239 1.25-2.323 2.17-3.252 0.933-0.942 2.015-1.678 3.245-2.207s2.542-0.794 3.934-0.794c1.866 0 3.563 0.458 5.090 1.374 1.541 0.916 2.765 2.149 3.671 3.697 0.919 1.549 1.379 3.265 1.379 5.149 0 1.407-0.264 2.723-0.791 3.949s-1.257 2.31-2.19 3.252c-0.919 0.929-1.994 1.658-3.225 2.187-1.217 0.529-2.528 0.794-3.935 0.794zM137.947 26.046c0.987 0 1.873-0.252 2.657-0.755s1.399-1.168 1.846-1.994c0.46-0.826 0.689-1.729 0.689-2.71 0-1.007-0.237-1.923-0.71-2.749-0.46-0.839-1.088-1.503-1.886-1.994-0.784-0.503-1.649-0.755-2.596-0.755-0.973 0-1.852 0.252-2.636 0.755s-1.406 1.174-1.866 2.013c-0.46 0.839-0.689 1.749-0.689 2.729 0 1.019 0.237 1.942 0.71 2.768s1.102 1.484 1.886 1.974c0.798 0.478 1.663 0.716 2.596 0.716z">
      </path>
      <path fill="#efede8" style="fill: var(--color2, #efede8)"
        d="M160.76 30.266h-4.908l-6.774-19.357h4.847l4.401 12.524 4.381-12.524h4.888l4.381 12.524 4.401-12.524h4.847l-6.774 19.357h-4.908l-4.401-12.582-4.381 12.582z">
      </path>
      <path fill="#efede8" style="fill: var(--color2, #efede8)"
        d="M192.372 30.769c-1.866 0-3.569-0.458-5.111-1.374-1.528-0.916-2.751-2.149-3.671-3.697-0.906-1.549-1.359-3.258-1.359-5.13 0-1.407 0.264-2.723 0.791-3.949 0.527-1.239 1.251-2.323 2.17-3.252 0.933-0.942 2.015-1.678 3.245-2.207s2.542-0.794 3.935-0.794c1.582 0 3.029 0.323 4.34 0.968 1.325 0.632 2.447 1.503 3.367 2.613s1.589 2.374 2.008 3.794c0.419 1.419 0.514 2.904 0.284 4.452h-14.825c0.189 0.723 0.5 1.374 0.933 1.955 0.433 0.568 0.98 1.026 1.643 1.374 0.662 0.335 1.413 0.51 2.251 0.523 0.865 0.013 1.649-0.181 2.352-0.581 0.717-0.413 1.311-0.968 1.785-1.665l5.050 1.123c-0.825 1.716-2.055 3.123-3.691 4.22-1.636 1.084-3.468 1.626-5.496 1.626zM187.383 18.652h9.978c-0.149-0.774-0.466-1.471-0.953-2.091-0.473-0.632-1.061-1.136-1.764-1.51s-1.46-0.561-2.272-0.561-1.562 0.187-2.251 0.561c-0.689 0.361-1.278 0.858-1.764 1.49-0.473 0.619-0.798 1.323-0.974 2.11z">
      </path>
      <path fill="#efede8" style="fill: var(--color2, #efede8)"
        d="M205.691 30.266l-0.020-19.357h4.948l0.020 1.723c0.689-0.697 1.514-1.245 2.474-1.645 0.96-0.413 1.994-0.619 3.103-0.619 0.744 0 1.487 0.103 2.231 0.31l-1.947 4.762c-0.514-0.194-1.027-0.29-1.541-0.29-0.798 0-1.528 0.187-2.19 0.561-0.649 0.361-1.169 0.858-1.562 1.491-0.379 0.619-0.568 1.31-0.568 2.071v10.995h-4.948z">
      </path>
      <path fill="#efede8" style="fill: var(--color2, #efede8)"
        d="M220.722 30.266v-27.099h10.14c1.541 0 2.934 0.368 4.178 1.103 1.257 0.736 2.251 1.723 2.981 2.962s1.095 2.6 1.095 4.084c0 1.523-0.379 2.903-1.136 4.142-0.744 1.226-1.744 2.207-3.002 2.942-1.257 0.723-2.63 1.084-4.117 1.084h-5.192v10.782h-4.948zM225.671 14.761h4.665c0.703 0 1.345-0.168 1.927-0.503s1.041-0.787 1.379-1.355c0.351-0.568 0.527-1.2 0.527-1.897 0-0.71-0.176-1.349-0.527-1.916-0.338-0.568-0.798-1.019-1.379-1.355s-1.224-0.503-1.927-0.503h-4.665v7.53z">
      </path>
      <path fill="#efede8" style="fill: var(--color2, #efede8)"
        d="M241.221 23.104v-12.195h4.95v10.956c0 0.761 0.194 1.458 0.586 2.091 0.394 0.619 0.913 1.116 1.563 1.491 0.662 0.361 1.386 0.542 2.169 0.542 0.812 0 1.543-0.181 2.191-0.542 0.65-0.374 1.169-0.871 1.563-1.491 0.391-0.632 0.588-1.329 0.588-2.091v-10.956h4.948l0.020 19.357h-4.948l-0.020-1.761c-0.704 0.697-1.536 1.252-2.496 1.665-0.96 0.4-1.986 0.6-3.082 0.6-1.474 0-2.818-0.342-4.036-1.026-1.217-0.697-2.19-1.619-2.92-2.768-0.717-1.161-1.075-2.452-1.075-3.871z">
      </path>
      <path fill="#efede8" style="fill: var(--color2, #efede8)" d="M263.978 30.266v-29.035h4.948v29.035h-4.948z"></path>
      <path fill="#efede8" style="fill: var(--color2, #efede8)"
        d="M279.783 30.614c-1.056-0.064-2.075-0.265-3.062-0.6-0.975-0.348-1.839-0.819-2.597-1.413-0.756-0.594-1.339-1.303-1.743-2.129l4.177-1.703c0.162 0.258 0.426 0.535 0.79 0.832 0.364 0.284 0.798 0.523 1.297 0.716 0.514 0.194 1.076 0.29 1.684 0.29 0.514 0 1.002-0.064 1.46-0.193 0.475-0.142 0.854-0.355 1.137-0.639 0.298-0.284 0.446-0.652 0.446-1.104 0-0.477-0.175-0.845-0.527-1.103-0.337-0.271-0.77-0.471-1.297-0.6-0.514-0.142-1.014-0.271-1.502-0.387-1.285-0.245-2.481-0.626-3.589-1.142-1.095-0.516-1.982-1.181-2.658-1.994-0.662-0.826-0.992-1.82-0.992-2.981 0-1.278 0.35-2.381 1.054-3.31 0.716-0.929 1.642-1.645 2.779-2.149 1.15-0.503 2.385-0.755 3.712-0.755 1.607 0 3.082 0.323 4.421 0.968 1.351 0.632 2.42 1.529 3.202 2.691l-3.914 2.207c-0.19-0.31-0.453-0.594-0.79-0.852-0.337-0.271-0.724-0.49-1.157-0.658-0.431-0.181-0.884-0.284-1.359-0.31-0.608-0.026-1.162 0.026-1.662 0.155-0.502 0.129-0.906 0.348-1.218 0.658-0.295 0.31-0.446 0.723-0.446 1.239 0 0.49 0.204 0.858 0.608 1.103 0.406 0.232 0.894 0.413 1.46 0.542 0.583 0.129 1.137 0.271 1.664 0.426 1.189 0.374 2.306 0.832 3.348 1.374 1.054 0.542 1.898 1.207 2.533 1.994 0.638 0.787 0.94 1.729 0.913 2.826 0 1.252-0.391 2.349-1.177 3.291-0.783 0.929-1.797 1.639-3.042 2.129-1.228 0.49-2.548 0.684-3.953 0.581z">
      </path>
      <path fill="#efede8" style="fill: var(--color2, #efede8)"
        d="M300.034 30.769c-1.866 0-3.569-0.458-5.113-1.374-1.526-0.916-2.75-2.149-3.67-3.697-0.906-1.549-1.359-3.258-1.359-5.13 0-1.407 0.263-2.723 0.79-3.949 0.529-1.239 1.25-2.323 2.171-3.252 0.933-0.942 2.014-1.678 3.244-2.207s2.543-0.794 3.936-0.794c1.58 0 3.028 0.323 4.34 0.968 1.324 0.632 2.447 1.503 3.365 2.613 0.921 1.11 1.59 2.374 2.009 3.794s0.514 2.904 0.283 4.452h-14.823c0.19 0.723 0.5 1.374 0.933 1.955 0.431 0.568 0.98 1.026 1.642 1.374 0.662 0.335 1.413 0.51 2.252 0.523 0.864 0.013 1.649-0.181 2.351-0.581 0.716-0.413 1.312-0.968 1.785-1.665l5.051 1.123c-0.825 1.716-2.055 3.123-3.692 4.22-1.634 1.084-3.468 1.626-5.494 1.626zM295.045 18.652h9.977c-0.148-0.774-0.465-1.471-0.953-2.091-0.473-0.632-1.061-1.136-1.765-1.51-0.702-0.374-1.46-0.561-2.27-0.561-0.812 0-1.563 0.187-2.252 0.561-0.689 0.361-1.278 0.858-1.765 1.49-0.473 0.619-0.798 1.323-0.972 2.11z">
      </path>
    </symbol>

    <symbol id="chevron-right" viewBox="0 0 32 32">
      <path d="M10.914 29.914l-2.828-2.829 11.586-11.586-11.586-11.586 2.828-2.828 14.414 14.414-14.414 14.414z"></path>
    </symbol>

    <symbol id="chevron-left" viewBox="0 0 32 32">
      <path d="M21.086 1.086l2.828 2.828-11.586 11.586 11.586 11.586-2.828 2.829-14.414-14.414 14.414-14.414z"></path>
    </symbol>

    <symbol id="menu" viewBox="0 0 32 32">
      <path fill="none" stroke="#e6533c" style="stroke: var(--color1, #e6533c)" stroke-linejoin="round"
        stroke-linecap="round" stroke-miterlimit="4" stroke-width="2" d="M4 16h16M4 8h24M4 24h24"></path>
    </symbol>

    <symbol id="fire" viewBox="0 0 32 32">
      <path
        d="M16.001 22.291c-0.946 0.72-2.898 2.5-2.898 4.925 0 1.601 1.3 2.904 2.897 2.904s2.897-1.303 2.897-2.904c0-2.297-1.954-4.161-2.895-4.925z">
      </path>
      <path
        d="M22.789 5.57c-0.351-0.397-0.958-0.421-1.34-0.064l-4.412 4.117v-8.623c0-0.722-0.87-1.261-1.522-0.867-0.123 0.075-3.055 1.865-6.017 5.116-3.602 3.953-6.055 8.766-6.055 14.164 0 6.941 5.633 12.587 12.557 12.587-2.631 0-4.772-2.146-4.772-4.784 0-4.262 4.138-6.786 4.314-6.891 0.309-0.184 0.695-0.176 0.996 0.022 0.173 0.114 4.234 2.838 4.234 6.869 0 2.638-2.141 4.784-4.772 4.784 6.924 0 12.557-5.647 12.557-12.587 0-5.241-2.313-9.938-5.767-13.843z">
      </path>
    </symbol>

    <symbol id="fork-and-knife" viewBox="0 0 32 32">
      <path
        d="M24 4c0.327 0 0.642 0.12 0.886 0.337s0.4 0.516 0.438 0.84l0.009 0.156v21.333c-0 0.34-0.131 0.667-0.364 0.914s-0.552 0.396-0.891 0.416c-0.339 0.020-0.673-0.090-0.934-0.308s-0.428-0.528-0.468-0.865l-0.009-0.156v-6.667h-1.333c-0.327 0-0.642-0.12-0.886-0.337s-0.4-0.516-0.438-0.84l-0.009-0.156v-8c0-2.947 2-6.667 4-6.667zM16 4c0.327 0 0.642 0.12 0.886 0.337s0.4 0.516 0.438 0.84l0.009 0.156v6.667c-0 1.183-0.393 2.331-1.117 3.266s-1.738 1.603-2.883 1.899v9.501c-0 0.34-0.13 0.667-0.364 0.914s-0.552 0.396-0.891 0.416c-0.339 0.020-0.673-0.090-0.934-0.308s-0.428-0.528-0.468-0.865l-0.009-0.156v-9.501c-1.099-0.284-2.079-0.912-2.798-1.791s-1.137-1.965-1.196-3.099l-0.007-0.275v-6.667c0-0.34 0.13-0.667 0.364-0.914s0.552-0.396 0.891-0.416c0.339-0.020 0.673 0.090 0.934 0.309s0.428 0.528 0.468 0.865l0.009 0.156v6.667c0 0.468 0.123 0.928 0.357 1.333s0.571 0.742 0.976 0.976v-8.976c0-0.34 0.13-0.667 0.364-0.914s0.552-0.396 0.891-0.416c0.339-0.020 0.673 0.090 0.934 0.309s0.428 0.528 0.468 0.865l0.009 0.156 0.001 8.976c0.372-0.215 0.687-0.517 0.917-0.88s0.37-0.776 0.406-1.204l0.009-0.225v-6.667c0-0.354 0.14-0.693 0.391-0.943s0.589-0.391 0.943-0.391z">
      </path>
    </symbol>

    <symbol id="pause" viewBox="0 0 32 32">
      <path stroke="#E6533C" stroke-linejoin="round" stroke-linecap="round" stroke-miterlimit="4" stroke-width="1"
        d="M4 10.4c0-2.24 0-3.36 0.436-4.216 0.383-0.753 0.995-1.365 1.748-1.748 0.856-0.436 1.976-0.436 4.216-0.436h11.2c2.24 0 3.36 0 4.216 0.436 0.753 0.383 1.364 0.995 1.748 1.748 0.436 0.856 0.436 1.976 0.436 4.216v11.2c0 2.24 0 3.36-0.436 4.216-0.384 0.753-0.995 1.364-1.748 1.748-0.856 0.436-1.976 0.436-4.216 0.436h-11.2c-2.24 0-3.36 0-4.216-0.436-0.753-0.384-1.365-0.995-1.748-1.748-0.436-0.856-0.436-1.976-0.436-4.216v-11.2z">
      </path>
      <path stroke-linejoin="round" stroke-linecap="round" stroke-miterlimit="4" stroke-width="1.3"
        d="M12.666 20v-8M19.333 20v-8"></path>
    </symbol>

    <symbol id="play" viewBox="0 0 32 32">
      <path stroke="#E6533C" stroke-linejoin="round" stroke-linecap="round" stroke-miterlimit="4" stroke-width="1"
        d="M4 10.4c0-2.24 0-3.36 0.436-4.216 0.383-0.753 0.995-1.365 1.748-1.748 0.856-0.436 1.976-0.436 4.216-0.436h11.2c2.24 0 3.36 0 4.216 0.436 0.753 0.383 1.364 0.995 1.748 1.748 0.436 0.856 0.436 1.976 0.436 4.216v11.2c0 2.24 0 3.36-0.436 4.216-0.384 0.753-0.995 1.364-1.748 1.748-0.856 0.436-1.976 0.436-4.216 0.436h-11.2c-2.24 0-3.36 0-4.216-0.436-0.753-0.384-1.365-0.995-1.748-1.748-0.436-0.856-0.436-1.976-0.436-4.216v-11.2z">
      </path>
      <path  stroke-linejoin="round" stroke-linecap="round" stroke-miterlimit="4" stroke-width="1.3"
        d="M11.917 10.75l8.167 5.25-8.167 5.25v-10.5z"></path>
    </symbol>

    <symbol id="apple" viewBox="0 0 32 32">
      <path
        d="M19.454 4.758c0.102-0.031 0.198-0.082 0.28-0.151s0.15-0.153 0.199-0.248 0.079-0.199 0.087-0.306c0.008-0.107-0.005-0.214-0.039-0.315s-0.088-0.195-0.159-0.275c-0.071-0.080-0.157-0.146-0.253-0.192s-0.201-0.073-0.308-0.078c-0.107-0.005-0.214 0.011-0.314 0.048-1.501 0.499-2.435 1.731-2.986 3.051-0.074 0.178-0.142 0.359-0.203 0.542-0.3-0.568-0.683-1.087-1.138-1.541-0.615-0.616-1.35-1.1-2.159-1.422s-1.675-0.475-2.546-0.45c-0.928 0.026-1.669 0.768-1.694 1.694-0.025 0.87 0.128 1.737 0.45 2.546s0.806 1.543 1.422 2.159l0.050 0.048c-1.344 0.291-2.559 1.007-3.464 2.042s-1.454 2.334-1.563 3.705l-0.010 0.118c-0.211 2.636 0.35 5.275 1.616 7.597l0.576 1.053c0.016 0.027 0.032 0.054 0.051 0.080l1.6 2.243c0.363 0.508 0.832 0.931 1.374 1.239s1.146 0.495 1.768 0.546c0.622 0.051 1.248-0.033 1.833-0.248s1.118-0.555 1.559-0.996c0.068-0.068 0.148-0.122 0.237-0.158s0.183-0.056 0.279-0.056c0.096 0 0.191 0.019 0.279 0.056s0.169 0.090 0.237 0.158c0.441 0.441 0.973 0.781 1.559 0.996s1.212 0.3 1.833 0.248c0.622-0.052 1.225-0.238 1.768-0.546s1.012-0.731 1.374-1.239l1.6-2.242c0.019-0.026 0.036-0.053 0.051-0.082l0.574-1.053c1.266-2.321 1.827-4.961 1.616-7.597l-0.008-0.118c-0.071-0.884-0.324-1.743-0.745-2.523s-0.998-1.465-1.697-2.010-1.503-0.94-2.362-1.158c-0.859-0.218-1.754-0.256-2.628-0.11l-2.651 0.442c0.016-1.090 0.208-2.315 0.638-3.349 0.448-1.080 1.114-1.848 2.013-2.149h0.002zM11.054 14.358c-0.246 0.078-0.473 0.203-0.67 0.369s-0.359 0.37-0.477 0.599c-0.296 0.557-0.499 1.475-0.312 2.974 0.021 0.208-0.040 0.416-0.17 0.579s-0.319 0.269-0.526 0.295c-0.207 0.026-0.416-0.030-0.583-0.157s-0.277-0.313-0.308-0.519c-0.213-1.702-0.016-2.984 0.488-3.926 0.512-0.96 1.291-1.478 2.053-1.733 0.1-0.033 0.205-0.046 0.31-0.039s0.207 0.036 0.301 0.083c0.094 0.047 0.178 0.112 0.247 0.191s0.121 0.172 0.155 0.271c0.033 0.1 0.046 0.205 0.039 0.31s-0.036 0.207-0.083 0.301c-0.047 0.094-0.112 0.178-0.191 0.247s-0.172 0.121-0.271 0.155z">
      </path>
    </symbol>

    <symbol id="barbell" viewBox="0 0 83 32">
      <path
        d="M80.941 13.714c1.040 0 1.882 0.843 1.882 1.882v0.807c0 1.040-0.843 1.882-1.882 1.882h-2.151c-1.039 0-1.882 0.843-1.882 1.882v5.378c0 1.040-0.843 1.882-1.882 1.882h-2.151c-1.040 0-1.882 0.843-1.882 1.882v0.807c0 1.040-0.843 1.882-1.882 1.882h-5.109c-1.040 0-1.882-0.843-1.882-1.882v-9.95c0-1.040-0.843-1.882-1.882-1.882h-37.647c-1.040 0-1.882 0.843-1.882 1.882v9.95c0 1.040-0.843 1.882-1.882 1.882h-5.109c-1.040 0-1.882-0.843-1.882-1.882v-0.807c0-1.040-0.843-1.882-1.882-1.882h-2.151c-1.040 0-1.882-0.843-1.882-1.882v-5.378c0-1.040-0.843-1.882-1.882-1.882h-2.151c-1.040 0-1.882-0.843-1.882-1.882v-0.807c0-1.040 0.843-1.882 1.882-1.882h2.151c1.040 0 1.882-0.843 1.882-1.882v-5.378c0-1.040 0.843-1.882 1.882-1.882h2.151c1.040 0 1.882-0.843 1.882-1.882v-0.807c0-1.040 0.843-1.882 1.882-1.882h5.109c1.040 0 1.882 0.843 1.882 1.882v9.95c0 1.040 0.843 1.882 1.882 1.882h37.647c1.040 0 1.882-0.843 1.882-1.882v-9.95c0-1.040 0.843-1.882 1.882-1.882h5.109c1.040 0 1.882 0.843 1.882 1.882v0.807c0 1.040 0.843 1.882 1.882 1.882h2.151c1.040 0 1.882 0.843 1.882 1.882v5.378c0 1.040 0.843 1.882 1.882 1.882h2.151z">
      </path>
    </symbol>

    <symbol id="bubble" viewBox="0 0 32 32">
      <path
        d="M20.793 16.346c3.778 0 6.84-3.062 6.84-6.84s-3.062-6.84-6.84-6.84c-3.778 0-6.84 3.062-6.84 6.84s3.062 6.84 6.84 6.84z">
      </path>
      <path
        d="M8.476 25.919c2.268 0 4.107-1.839 4.107-4.107s-1.839-4.107-4.107-4.107c-2.268 0-4.107 1.839-4.107 4.107s1.839 4.107 4.107 4.107z">
      </path>
      <path
        d="M22.151 29.332c1.885 0 3.413-1.528 3.413-3.413s-1.528-3.413-3.413-3.413c-1.885 0-3.413 1.528-3.413 3.413s1.528 3.413 3.413 3.413z">
      </path>
    </symbol>

    <symbol id="calendar" viewBox="0 0 32 32">
      <path stroke-linejoin="round" stroke-linecap="round" stroke-miterlimit="4" stroke-width="2.6667"
        d="M25.333 5.333h-18.667c-1.473 0-2.667 1.194-2.667 2.667v18.667c0 1.473 1.194 2.667 2.667 2.667h18.667c1.473 0 2.667-1.194 2.667-2.667v-18.667c0-1.473-1.194-2.667-2.667-2.667z">
      </path>
      <path stroke-linejoin="round" stroke-linecap="round" stroke-miterlimit="4" stroke-width="2.6667"
        d="M21.333 2.667v5.333"></path>
      <path stroke-linejoin="round" stroke-linecap="round" stroke-miterlimit="4" stroke-width="2.6667"
        d="M10.667 2.667v5.333"></path>
      <path stroke-linejoin="round" stroke-linecap="round" stroke-miterlimit="4" stroke-width="2.6667" d="M4 13.333h24">
      </path>
    </symbol>

    <symbol id="dumbbell" viewBox="0 0 32 32">
      <path
        d="M5.2 8h-2.4c-0.665 0-1.2 0.535-1.2 1.2v5.2h-1.2c-0.22 0-0.4 0.18-0.4 0.4v2.4c0 0.22 0.18 0.4 0.4 0.4h1.2v5.2c0 0.665 0.535 1.2 1.2 1.2h2.4c0.665 0 1.2-0.535 1.2-1.2v-13.6c0-0.665-0.535-1.2-1.2-1.2zM31.6 14.4h-1.2v-5.2c0-0.665-0.535-1.2-1.2-1.2h-2.4c-0.665 0-1.2 0.535-1.2 1.2v13.6c0 0.665 0.535 1.2 1.2 1.2h2.4c0.665 0 1.2-0.535 1.2-1.2v-5.2h1.2c0.22 0 0.4-0.18 0.4-0.4v-2.4c0-0.22-0.18-0.4-0.4-0.4zM22.8 4.8h-2.4c-0.665 0-1.2 0.535-1.2 1.2v8.4h-6.4v-8.4c0-0.665-0.535-1.2-1.2-1.2h-2.4c-0.665 0-1.2 0.535-1.2 1.2v20c0 0.665 0.535 1.2 1.2 1.2h2.4c0.665 0 1.2-0.535 1.2-1.2v-8.4h6.4v8.4c0 0.665 0.535 1.2 1.2 1.2h2.4c0.665 0 1.2-0.535 1.2-1.2v-20c0-0.665-0.535-1.2-1.2-1.2z">
      </path>
    </symbol>

    <symbol id="line" viewBox="0 0 87 32">
      <path fill="none" stroke="#ef8964" style="stroke: var(--color1, #ef8964)" stroke-linejoin="round"
        stroke-linecap="round" stroke-miterlimit="4" stroke-width="0.9275"
        d="M61.051 0.464c-20.416 0.3-65 3.913-60.233 22.304 4.284 12.985 65.327 10.195 80.388 0.425s-5.623-19.937-34.455-16.338">
      </path>
    </symbol>
    
    <symbol id="log-out" viewBox="0 0 32 32">
      <path fill="none" stroke="#e6533c" style="stroke: var(--color1, #e6533c)" stroke-linejoin="round"
        stroke-linecap="round" stroke-miterlimit="4" stroke-width="2.4"
        d="M12 4h-1.6c-2.24 0-3.36 0-4.216 0.436-0.753 0.383-1.365 0.995-1.748 1.748-0.436 0.856-0.436 1.976-0.436 4.216v11.2c0 2.24 0 3.36 0.436 4.216 0.383 0.753 0.995 1.364 1.748 1.748 0.856 0.436 1.976 0.436 4.216 0.436h1.6">
      </path>
      <path fill="none" stroke="#e6533c" style="stroke: var(--color1, #e6533c)" stroke-linejoin="round"
        stroke-linecap="round" stroke-miterlimit="4" stroke-width="2.4"
        d="M21.333 22.667l6.667-6.667M28 16l-6.667-6.667M28 16h-16"></path>
    </symbol>

    <symbol id="settings" viewBox="0 0 32 32">
      <path fill="none" stroke="#EFEDE84D" style="stroke: var(--color1, rgba(239, 237, 232, 0.3))"
        stroke-linejoin="round" stroke-linecap="round" stroke-miterlimit="4" stroke-width="2.2857"
        d="M16 20c2.209 0 4-1.791 4-4s-1.791-4-4-4c-2.209 0-4 1.791-4 4s1.791 4 4 4z"></path>
      <path fill="none" stroke="#EFEDE84D" style="stroke: var(--color1, rgba(239, 237, 232, 0.3))"
        stroke-linejoin="round" stroke-linecap="round" stroke-miterlimit="4" stroke-width="2.2857"
        d="M24.97 19.636c-0.161 0.366-0.209 0.771-0.138 1.164s0.259 0.756 0.538 1.042l0.073 0.073c0.225 0.225 0.404 0.492 0.526 0.787s0.185 0.61 0.185 0.928c0 0.319-0.063 0.634-0.185 0.928s-0.301 0.562-0.526 0.787c-0.225 0.225-0.493 0.404-0.787 0.526s-0.61 0.185-0.928 0.185c-0.319 0-0.634-0.063-0.928-0.185s-0.562-0.301-0.787-0.526l-0.073-0.073c-0.286-0.279-0.648-0.467-1.042-0.538s-0.799-0.023-1.164 0.138c-0.358 0.154-0.664 0.409-0.88 0.734s-0.331 0.706-0.333 1.096v0.206c0 0.643-0.255 1.26-0.71 1.714s-1.071 0.71-1.714 0.71c-0.643 0-1.26-0.255-1.714-0.71s-0.71-1.071-0.71-1.714v-0.109c-0.009-0.401-0.139-0.79-0.373-1.117s-0.56-0.575-0.936-0.714c-0.366-0.161-0.771-0.209-1.164-0.138s-0.756 0.259-1.042 0.538l-0.073 0.073c-0.225 0.225-0.492 0.404-0.787 0.526s-0.61 0.185-0.928 0.185-0.634-0.063-0.928-0.185c-0.294-0.122-0.562-0.301-0.787-0.526s-0.404-0.493-0.526-0.787-0.185-0.61-0.185-0.928c0-0.319 0.063-0.634 0.185-0.928s0.301-0.562 0.526-0.787l0.073-0.073c0.279-0.286 0.467-0.648 0.538-1.042s0.023-0.799-0.138-1.164c-0.154-0.358-0.409-0.664-0.734-0.88s-0.706-0.331-1.096-0.332h-0.206c-0.643 0-1.26-0.255-1.714-0.71s-0.71-1.071-0.71-1.714c0-0.643 0.255-1.26 0.71-1.714s1.071-0.71 1.714-0.71h0.109c0.401-0.009 0.79-0.139 1.117-0.373s0.575-0.56 0.714-0.936c0.161-0.366 0.21-0.771 0.138-1.164s-0.259-0.756-0.538-1.042l-0.073-0.073c-0.225-0.225-0.404-0.492-0.526-0.787s-0.185-0.61-0.185-0.928c0-0.319 0.063-0.634 0.185-0.928s0.301-0.562 0.526-0.787c0.225-0.225 0.492-0.404 0.787-0.526s0.61-0.185 0.928-0.185c0.319 0 0.634 0.063 0.928 0.185s0.562 0.301 0.787 0.526l0.073 0.073c0.286 0.279 0.649 0.467 1.042 0.538s0.799 0.023 1.164-0.138h0.097c0.358-0.154 0.664-0.409 0.88-0.734s0.331-0.706 0.333-1.096v-0.206c0-0.643 0.255-1.26 0.71-1.714s1.071-0.71 1.714-0.71c0.643 0 1.26 0.255 1.714 0.71s0.71 1.071 0.71 1.714v0.109c0.002 0.39 0.117 0.771 0.332 1.096s0.521 0.58 0.88 0.734c0.366 0.161 0.771 0.209 1.164 0.138s0.756-0.259 1.042-0.538l0.073-0.073c0.225-0.225 0.493-0.404 0.787-0.526s0.61-0.185 0.928-0.185c0.319 0 0.634 0.063 0.928 0.185s0.562 0.301 0.787 0.526c0.226 0.225 0.404 0.492 0.526 0.787s0.185 0.61 0.185 0.928-0.063 0.634-0.185 0.928c-0.122 0.294-0.301 0.562-0.526 0.787l-0.073 0.073c-0.279 0.286-0.467 0.649-0.538 1.042s-0.023 0.799 0.138 1.164v0.097c0.154 0.358 0.409 0.664 0.734 0.88s0.706 0.331 1.096 0.332h0.206c0.643 0 1.26 0.255 1.714 0.71s0.71 1.071 0.71 1.714c0 0.643-0.255 1.26-0.71 1.714s-1.071 0.71-1.714 0.71h-0.109c-0.39 0.002-0.771 0.117-1.096 0.332s-0.58 0.521-0.734 0.88z">
      </path>
    </symbol>

    <symbol id="ecllipse" viewBox="0 0 32 32">
      <path stroke-linejoin="miter" stroke-linecap="butt" stroke-miterlimit="4" stroke-width="0.6957"
        d="M31.652 16c0 8.644-7.008 15.652-15.652 15.652s-15.652-7.008-15.652-15.652c0-8.644 7.008-15.652 15.652-15.652s15.652 7.008 15.652 15.652z">
      </path>
    </symbol>


    <symbol id="close" viewBox="0 0 32 32">
      <path    stroke-linejoin="round"
        stroke-linecap="round" stroke-miterlimit="4" stroke-width="2.6667" d="M24 8l-16 16M8 8l16 16"></path>
    </symbol>

    <symbol id="logout" viewBox="0 0 32 32">
      <path fill="none" stroke="#efede8" style="stroke: var(--color1, #efede8)" stroke-linejoin="round"
        stroke-linecap="round" stroke-miterlimit="4" stroke-width="2.4"
        d="M12 4h-1.6c-2.24 0-3.36 0-4.216 0.436-0.753 0.383-1.365 0.995-1.748 1.748-0.436 0.856-0.436 1.976-0.436 4.216v11.2c0 2.24 0 3.36 0.436 4.216 0.383 0.753 0.995 1.364 1.748 1.748 0.856 0.436 1.976 0.436 4.216 0.436h1.6">
      </path>
      <path fill="none" stroke="#efede8" style="stroke: var(--color1, #efede8)" stroke-linejoin="round"
        stroke-linecap="round" stroke-miterlimit="4" stroke-width="2.4"
        d="M21.333 22.667l6.667-6.667M28 16l-6.667-6.667M28 16h-16"></path>
    </symbol>

    <symbol id="icon-eye-off" viewBox="0 0 32 32">
      <path fill="none" stroke="#efede8" style="stroke: var(--color1, #efede8)" stroke-linejoin="round"
        stroke-linecap="round" stroke-miterlimit="4" stroke-width="2.88"
        d="M23.92 23.92c-2.279 1.737-5.055 2.7-7.92 2.747-9.333 0-14.667-10.667-14.667-10.667 1.659-3.091 3.959-5.791 6.747-7.92M13.2 5.653c0.918-0.215 1.857-0.322 2.8-0.32 9.333 0 14.667 10.667 14.667 10.667-0.809 1.514-1.775 2.94-2.88 4.253M18.827 18.827c-0.366 0.393-0.808 0.708-1.299 0.927s-1.020 0.336-1.557 0.346c-0.537 0.009-1.071-0.089-1.569-0.291s-0.95-0.501-1.33-0.88c-0.38-0.38-0.679-0.832-0.88-1.33s-0.3-1.032-0.29-1.569c0.009-0.537 0.127-1.067 0.346-1.558s0.534-0.932 0.927-1.298">
      </path>
      <path fill="none" stroke="#efede8" style="stroke: var(--color1, #efede8)" stroke-linejoin="round"
        stroke-linecap="round" stroke-miterlimit="4" stroke-width="2.88" d="M1.333 1.333l29.333 29.333"></path>
    </symbol>

    <symbol id="icon-eye" viewBox="0 0 32 32">
      <path style="stroke: var(--color1, #efede8)" stroke-linejoin="round" stroke-linecap="round" stroke-miterlimit="4"
        stroke-width="2.88"
        d="M1.333 16c0 0 5.333-10.667 14.667-10.667s14.667 10.667 14.667 10.667-5.333 10.667-14.667 10.667c-9.333 0-14.667-10.667-14.667-10.667z">
      </path>
      <path fill="none" stroke="#efede8" style="stroke: var(--color1, #efede8)" stroke-linejoin="round"
        stroke-linecap="round" stroke-miterlimit="4" stroke-width="2.88"
        d="M16 20c2.209 0 4-1.791 4-4s-1.791-4-4-4c-2.209 0-4 1.791-4 4s1.791 4 4 4z"></path>
    </symbol>

    <symbol id="icon-checkbox-circle-fill" viewBox="0 0 32 32">
      <path fill="#d80027" style="fill: var(--color1, #d80027)"
        d="M16 29.333c-7.364 0-13.333-5.969-13.333-13.333s5.969-13.333 13.333-13.333c7.364 0 13.333 5.969 13.333 13.333s-5.969 13.333-13.333 13.333zM14.459 21.98l9.427-9.428-1.885-1.885-7.541 7.543-3.772-3.772-1.885 1.885 5.657 5.657z">
      </path>

    </symbol>

    <symbol id="icon-exclamation-mark" viewBox="0 0 32 32">
      <path fill="#efa082" style="fill: var(--color1, #efa082)"
        d="M32 16c0 8.837-7.163 16-16 16s-16-7.163-16-16c0-8.837 7.163-16 16-16s16 7.163 16 16z"></path>
      <path fill="none" stroke="#efede8" style="stroke: var(--color2, #efede8)" stroke-linejoin="round"
        stroke-linecap="round" stroke-miterlimit="4" stroke-width="2.6667" d="M16 25.333v0.013M16 20v-13.333"></path>
    </symbol>

    <symbol id="arrow-right" viewBox="0 0 42 32">
      <path stroke-linejoin="round" stroke-linecap="round" stroke-miterlimit="4" stroke-width="4.8"
        d="M23.467 29.333l13.333-13.333M36.8 16l-13.333-13.333M36.8 16h-32"></path>
    </symbol>

    <symbol id="runningMan" viewBox="0 0 32 32">
      <path 
        d="M29.647 9.451c-0.419-0.501-1.166-0.567-1.667-0.149l-3.282 2.757-1.509-3.739c-0.054-0.14-0.135-0.258-0.229-0.362-0.308-0.686-0.844-1.275-1.582-1.617-0.321-0.146-0.652-0.224-0.982-0.262-0.073-0.038-0.139-0.088-0.222-0.114l-5.776-1.61c-0.324-0.088-0.65-0.031-0.917 0.125-0.317 0.107-0.589 0.338-0.719 0.672l-2.175 5.592c-0.236 0.608 0.066 1.294 0.676 1.534 0.606 0.236 1.294-0.068 1.532-0.678l1.837-4.722 2.63 0.731c-0.064 0.104-0.133 0.201-0.185 0.312l-3.372 7.309c-0.049 0.107-0.075 0.217-0.109 0.328l-4.098 6.871-6.859 2.294c-0.776 0.581-0.941 1.674-0.367 2.45 0.577 0.778 1.674 0.943 2.448 0.369l7.018-2.417c0.215-0.156 0.371-0.36 0.489-0.58 0.088-0.094 0.189-0.168 0.256-0.284l2.443-4.096 4.337 3.696-4.64 5.23c-0.639 0.721-0.575 1.832 0.149 2.469 0.723 0.643 1.83 0.575 2.473-0.149l5.791-6.524c0.18-0.201 0.288-0.433 0.36-0.676 0.043-0.132 0.043-0.269 0.054-0.406 0-0.069 0.026-0.132 0.021-0.196-0.016-0.478-0.21-0.943-0.601-1.274l-3.991-3.403c0.288-0.274 0.532-0.6 0.709-0.983l2.585-5.599 0.828 2.206c0.035 0.196 0.101 0.388 0.239 0.549 0.125 0.149 0.284 0.248 0.454 0.317 0.017 0.009 0.038 0.010 0.059 0.016 0.107 0.038 0.217 0.075 0.329 0.080 0.133 0.012 0.269-0.005 0.405-0.043 0.004-0.002 0.005-0.002 0.005-0.002 0.036-0.009 0.073-0.002 0.109-0.017 0.192-0.073 0.34-0.196 0.466-0.34l4.71-3.998c0.501-0.421 0.289-1.166-0.132-1.667z">
      </path>
      <path 
        d="M23.69 6.602c1.823 0 3.301-1.478 3.301-3.301s-1.478-3.301-3.301-3.301c-1.823 0-3.301 1.478-3.301 3.301s1.478 3.301 3.301 3.301z">
      </path>
    </symbol>

    <symbol id="icon-search" viewBox="0 0 32 32">
      <path  stroke-linejoin="round"
        stroke-linecap="round" stroke-miterlimit="4" stroke-width="2.6667"
        d="M14.667 25.333c5.891 0 10.667-4.776 10.667-10.667s-4.776-10.667-10.667-10.667c-5.891 0-10.667 4.776-10.667 10.667s4.776 10.667 10.667 10.667z">
      </path>
      <path stroke-linejoin="round"
        stroke-linecap="round" stroke-miterlimit="4" stroke-width="2.6667" d="M28.001 28l-5.8-5.8"></path>
    </symbol>

    <symbol id="icon-gridicons_user" viewBox="0 0 32 32">
      <path
        d="M15.743 5.333c1.392 0 2.726 0.562 3.71 1.562s1.537 2.357 1.537 3.771-0.553 2.771-1.537 3.771c-0.984 1-2.319 1.562-3.71 1.562s-2.726-0.562-3.71-1.562c-0.984-1-1.537-2.357-1.537-3.771s0.553-2.771 1.537-3.771c0.984-1 2.319-1.562 3.71-1.562zM15.743 26.667c0 0 10.495 0 10.495-2.667 0-3.2-5.116-6.667-10.495-6.667s-10.495 3.467-10.495 6.667c0 2.667 10.495 2.667 10.495 2.667z">
      </path>
    </symbol>

    <symbol id="icon-check-mark" viewBox="0 0 32 32">
      <path stroke-width="0"
        d="M11.231 0.57l4.024 1.164c0.452 0.131 0.932 0.132 1.384 0.003l4.175-1.189c1.127-0.321 2.326 0.181 2.889 1.208l2.18 3.982c0.224 0.409 0.558 0.748 0.964 0.978l3.39 1.92c1.028 0.582 1.511 1.803 1.159 2.931l-1.172 3.759c-0.151 0.484-0.152 1.002-0.002 1.487l1.191 3.86c0.344 1.114-0.125 2.318-1.132 2.906l-3.859 2.256c-0.404 0.236-0.734 0.581-0.953 0.995l-1.797 3.404c-0.545 1.033-1.731 1.553-2.86 1.255l-4.22-1.114c-0.423-0.112-0.868-0.111-1.291 0.002l-4.057 1.088c-1.155 0.31-2.369-0.239-2.899-1.311l-1.788-3.612c-0.236-0.476-0.617-0.866-1.088-1.112l-3.674-1.918c-1.048-0.547-1.572-1.752-1.258-2.893l1.075-3.896c0.118-0.429 0.121-0.882 0.006-1.313l-1.118-4.206c-0.295-1.111 0.201-2.28 1.206-2.838l3.831-2.131c0.429-0.239 0.778-0.598 1.005-1.033l1.765-3.385c0.552-1.059 1.775-1.582 2.922-1.25z">
      </path>
      <path stroke-width="2" stroke-miterlimit="4" stroke-linecap="round" stroke-linejoin="round"
        d="M16.333 9.333v13.333"></path>
      <path stroke-width="2" stroke-miterlimit="4" stroke-linecap="round" stroke-linejoin="round" d="M9.333 16h13.333">
      </path>
    </symbol>

    <symbol id="logout_" viewBox="0 0 32 32">
      <path fill="none" stroke-linejoin="round" stroke-linecap="round" stroke-miterlimit="4" stroke-width="2.4"
        d="M12 4h-1.6c-2.24 0-3.36 0-4.216 0.436-0.753 0.383-1.365 0.995-1.748 1.748-0.436 0.856-0.436 1.976-0.436 4.216v11.2c0 2.24 0 3.36 0.436 4.216 0.383 0.753 0.995 1.364 1.748 1.748 0.856 0.436 1.976 0.436 4.216 0.436h1.6">
      </path>
      <path stroke-linejoin="round" stroke-linecap="round" stroke-miterlimit="4" stroke-width="2.4"
        d="M21.333 22.667l6.667-6.667M28 16l-6.667-6.667M28 16h-16"></path>
    </symbol>

    <symbol id="icon-trash" viewBox="0 0 32 32">
      <path fill="none" stroke="#ef8964" style="stroke: var(--color1, #ef8964)" stroke-linejoin="round" stroke-linecap="round" stroke-miterlimit="4" stroke-width="2.4" d="M12 4h8M13.333 14v6.667M18.667 14v6.667"></path>
      <path fill="none" stroke="#ef8964" style="stroke: var(--color1, #ef8964)" stroke-linejoin="round" stroke-linecap="round" stroke-miterlimit="4" stroke-width="2.4" d="M4 8h24M25.333 8l-0.935 14.026c-0.14 2.104-0.21 3.156-0.665 3.954-0.4 0.702-1.004 1.267-1.731 1.62-0.826 0.4-1.881 0.4-3.99 0.4h-4.025c-2.109 0-3.163 0-3.99-0.4-0.727-0.352-1.331-0.917-1.731-1.62-0.455-0.798-0.525-1.85-0.665-3.954l-0.935-14.026"></path>
    </symbol>

  <symbol id="icon-arrow-left" viewBox="0 0 32 32">
<path d="M12.586 27.414l-10-10c-0.781-0.781-0.781-2.047 0-2.828l10-10c0.781-0.781 2.047-0.781 2.828 0s0.781 2.047 0 2.828l-6.586 6.586h19.172c1.105 0 2 0.895 2 2s-0.895 2-2 2h-19.172l6.586 6.586c0.39 0.39 0.586 0.902 0.586 1.414s-0.195 1.024-0.586 1.414c-0.781 0.781-2.047 0.781-2.828 0z"></path>
</symbol>
<symbol id="icon-chevron-down" viewBox="0 0 24 24">
<path d="M5.293 9.707l6 6c0.391 0.391 1.024 0.391 1.414 0l6-6c0.391-0.391 0.391-1.024 0-1.414s-1.024-0.391-1.414 0l-5.293 5.293-5.293-5.293c-0.391-0.391-1.024-0.391-1.414 0s-0.391 1.024 0 1.414z"></path>
</symbol>

<symbol id="user" viewBox="0 0 32 32">
<path fill="#efede8" style="fill: var(--color1, #efede8)" opacity="0.1" d="M16 5.333c1.415 0 2.771 0.562 3.771 1.562s1.562 2.357 1.562 3.771-0.562 2.771-1.562 3.771c-1 1-2.357 1.562-3.771 1.562s-2.771-0.562-3.771-1.562c-1-1-1.562-2.357-1.562-3.771s0.562-2.771 1.562-3.771c1-1 2.357-1.562 3.771-1.562zM16 26.667c0 0 10.667 0 10.667-2.667 0-3.2-5.2-6.667-10.667-6.667s-10.667 3.467-10.667 6.667c0 2.667 10.667 2.667 10.667 2.667z"></path>
</symbol>

<symbol id="icon-logo_error" viewBox="0 0 83 32">
<path fill="#efede8" style="fill: var(--color1, #efede8)" d="M80.941 13.714c1.040 0 1.882 0.843 1.882 1.882v0.807c0 1.040-0.843 1.882-1.882 1.882h-2.151c-1.039 0-1.882 0.843-1.882 1.882v5.378c0 1.040-0.843 1.882-1.882 1.882h-2.151c-1.040 0-1.882 0.843-1.882 1.882v0.807c0 1.040-0.843 1.882-1.882 1.882h-5.109c-1.040 0-1.882-0.843-1.882-1.882v-9.95c0-1.040-0.843-1.882-1.882-1.882h-37.647c-1.040 0-1.882 0.843-1.882 1.882v9.95c0 1.040-0.843 1.882-1.882 1.882h-5.109c-1.040 0-1.882-0.843-1.882-1.882v-0.807c0-1.040-0.843-1.882-1.882-1.882h-2.151c-1.040 0-1.882-0.843-1.882-1.882v-5.378c0-1.040-0.843-1.882-1.882-1.882h-2.151c-1.040 0-1.882-0.843-1.882-1.882v-0.807c0-1.040 0.843-1.882 1.882-1.882h2.151c1.040 0 1.882-0.843 1.882-1.882v-5.378c0-1.040 0.843-1.882 1.882-1.882h2.151c1.040 0 1.882-0.843 1.882-1.882v-0.807c0-1.040 0.843-1.882 1.882-1.882h5.109c1.040 0 1.882 0.843 1.882 1.882v9.95c0 1.040 0.843 1.882 1.882 1.882h37.647c1.040 0 1.882-0.843 1.882-1.882v-9.95c0-1.040 0.843-1.882 1.882-1.882h5.109c1.040 0 1.882 0.843 1.882 1.882v0.807c0 1.040 0.843 1.882 1.882 1.882h2.151c1.040 0 1.882 0.843 1.882 1.882v5.378c0 1.040 0.843 1.882 1.882 1.882h2.151z"></path>
</symbol>
 <symbol id="icon-PlatformTelegram" viewBox="0 0 32 32">
<path fill="#000" style="fill: var(--color1, #000)" d="M16 32c8.837 0 16-7.163 16-16s-7.163-16-16-16c-8.837 0-16 7.163-16 16s7.163 16 16 16z"></path>
<path fill="#fff" style="fill: var(--color2, #fff)" d="M7.243 15.831c4.664-2.032 7.775-3.372 9.331-4.019 4.443-1.848 5.367-2.169 5.968-2.18 0.132-0.002 0.428 0.030 0.62 0.186 0.162 0.131 0.206 0.309 0.228 0.433s0.048 0.408 0.027 0.63c-0.241 2.53-1.283 8.67-1.813 11.503-0.224 1.199-0.666 1.601-1.093 1.64-0.929 0.085-1.635-0.614-2.535-1.204-1.408-0.923-2.204-1.498-3.571-2.398-1.58-1.041-0.556-1.613 0.345-2.548 0.236-0.245 4.329-3.968 4.409-4.306 0.010-0.042 0.019-0.2-0.074-0.283s-0.232-0.055-0.331-0.032c-0.141 0.032-2.391 1.519-6.749 4.461-0.639 0.438-1.217 0.652-1.735 0.641-0.571-0.012-1.67-0.323-2.487-0.589-1.002-0.326-1.798-0.498-1.729-1.051 0.036-0.288 0.433-0.583 1.19-0.884z"></path>
</symbol>
<symbol id="icon-PlatformLinkedIn" viewBox="0 0 32 32">
<path   d="M29.638 0h-27.276c-0.627 0-1.227 0.249-1.67 0.692s-0.692 1.044-0.692 1.67v27.276c0 0.626 0.249 1.227 0.692 1.67s1.044 0.692 1.67 0.692h27.276c0.626 0 1.227-0.249 1.67-0.692s0.692-1.044 0.692-1.67v-27.276c0-0.627-0.249-1.227-0.692-1.67s-1.044-0.692-1.67-0.692zM9.538 27.26h-4.811v-15.282h4.811v15.282zM7.129 9.86c-0.546-0.003-1.078-0.168-1.531-0.473s-0.804-0.738-1.010-1.243c-0.207-0.505-0.259-1.060-0.15-1.595s0.373-1.026 0.76-1.41c0.387-0.385 0.88-0.646 1.415-0.751s1.090-0.049 1.594 0.161c0.504 0.21 0.934 0.564 1.237 1.018s0.464 0.988 0.463 1.534c0.005 0.365-0.063 0.728-0.201 1.066s-0.343 0.645-0.602 0.903c-0.259 0.258-0.568 0.46-0.907 0.596s-0.702 0.202-1.068 0.194zM27.271 27.273h-4.809v-8.349c0-2.462-1.047-3.222-2.398-3.222-1.427 0-2.827 1.076-2.827 3.284v8.287h-4.811v-15.284h4.627v2.118h0.062c0.464-0.94 2.091-2.547 4.573-2.547 2.684 0 5.584 1.593 5.584 6.26l-0.002 9.453z"></path>
</symbol>
<symbol id="icon-PlatformInstagram" viewBox="0 0 32 32">
<path d="M16 2.881c4.275 0 4.781 0.019 6.463 0.094 1.562 0.069 2.406 0.331 2.969 0.55 0.744 0.288 1.281 0.638 1.837 1.194 0.563 0.563 0.906 1.094 1.194 1.838 0.219 0.562 0.481 1.412 0.55 2.969 0.075 1.687 0.094 2.194 0.094 6.463 0 4.275-0.019 4.781-0.094 6.462-0.069 1.563-0.331 2.406-0.55 2.969-0.288 0.744-0.638 1.281-1.194 1.838-0.562 0.562-1.094 0.906-1.837 1.194-0.563 0.219-1.413 0.481-2.969 0.55-1.688 0.075-2.194 0.094-6.463 0.094-4.275 0-4.781-0.019-6.462-0.094-1.563-0.069-2.406-0.331-2.969-0.55-0.744-0.287-1.281-0.637-1.837-1.194-0.563-0.563-0.906-1.094-1.194-1.838-0.219-0.562-0.481-1.412-0.55-2.969-0.075-1.687-0.094-2.194-0.094-6.462 0-4.275 0.019-4.781 0.094-6.463 0.069-1.563 0.331-2.406 0.55-2.969 0.288-0.744 0.638-1.281 1.194-1.838 0.563-0.563 1.094-0.906 1.838-1.194 0.563-0.219 1.412-0.481 2.969-0.55 1.681-0.075 2.187-0.094 6.462-0.094zM16 0c-4.344 0-4.887 0.019-6.594 0.094-1.7 0.075-2.869 0.35-3.881 0.744-1.056 0.412-1.95 0.956-2.837 1.85-0.894 0.888-1.438 1.781-1.85 2.831-0.394 1.019-0.669 2.181-0.744 3.881-0.075 1.712-0.094 2.256-0.094 6.6s0.019 4.887 0.094 6.594c0.075 1.7 0.35 2.869 0.744 3.881 0.413 1.056 0.956 1.95 1.85 2.838 0.887 0.887 1.781 1.437 2.831 1.844 1.019 0.394 2.181 0.669 3.881 0.744 1.706 0.075 2.25 0.094 6.594 0.094s4.888-0.019 6.594-0.094c1.7-0.075 2.869-0.35 3.881-0.744 1.050-0.406 1.944-0.956 2.831-1.844s1.438-1.781 1.844-2.831c0.394-1.019 0.669-2.181 0.744-3.881 0.075-1.706 0.094-2.25 0.094-6.594s-0.019-4.888-0.094-6.594c-0.075-1.7-0.35-2.869-0.744-3.881-0.394-1.063-0.937-1.956-1.831-2.844-0.888-0.887-1.781-1.438-2.831-1.844-1.019-0.394-2.181-0.669-3.881-0.744-1.712-0.081-2.256-0.1-6.6-0.1z"></path>
<path d="M16 7.781c-4.537 0-8.219 3.681-8.219 8.219s3.681 8.219 8.219 8.219c4.537 0 8.219-3.681 8.219-8.219s-3.681-8.219-8.219-8.219zM16 21.331c-2.944 0-5.331-2.388-5.331-5.331s2.388-5.331 5.331-5.331c2.944 0 5.331 2.388 5.331 5.331s-2.388 5.331-5.331 5.331z"></path>
<path d="M26.462 7.456c0 1.063-0.862 1.919-1.919 1.919-1.062 0-1.919-0.862-1.919-1.919 0-1.063 0.863-1.919 1.919-1.919s1.919 0.862 1.919 1.919z"></path>
</symbol>
<symbol id="icon-PlatformX-Twitter" viewBox="0 0 32 32">
<path d="M24.435 2.539h4.498l-9.827 11.231 11.56 15.283h-9.052l-7.090-9.269-8.112 9.269h-4.501l10.511-12.013-11.090-14.501h9.281l6.408 8.472 7.412-8.472zM22.856 26.361h2.492l-16.088-21.272h-2.675l16.27 21.272z"></path>
</symbol>
<symbol id="icon-PlatformFacebook" viewBox="0 0 32 32">
<path d="M22.228 20.625l0.709-4.625h-4.437v-3c0-1.265 0.62-2.5 2.608-2.5h2.017v-3.938c0 0-1.831-0.313-3.582-0.313-3.655 0-6.043 2.215-6.043 6.225v3.525h-4.063v4.625h4.063v11.181c1.657 0.259 3.343 0.259 5 0v-11.181h3.728z"></path>
</symbol>
<symbol id="icon-menu_FILL0_wght400_GRAD0_opsz48" viewBox="0 0 32 32">
<path d="M4 24v-2h24v2h-24zM4 17v-2h24v2h-24zM4 10v-2h24v2h-24z"></path>
</symbol>
<symbol id="icon-call_FILL0_wght400_GRAD0_opsz48" viewBox="0 0 32 32">
<path d="M26.5 28q-3.867 0-7.883-1.867t-7.45-5.3-5.3-7.45-1.867-7.883q0-0.643 0.429-1.071t1.071-0.429h4.667q0.467 0 0.8 0.333t0.467 0.833l0.898 4.188q0.069 0.479-0.014 0.862t-0.358 0.658l-3.326 3.359q0.867 1.467 1.833 2.733t2.133 2.4q1.233 1.267 2.6 2.317t2.867 1.85l3.167-3.267q0.333-0.367 0.772-0.5t0.862-0.067l3.967 0.867q0.5 0.133 0.833 0.535t0.333 0.899v4.5q0 0.643-0.429 1.071t-1.071 0.429zM7.633 12.4l2.7-2.733-0.767-3.667h-3.567q0.067 1.4 0.45 2.95t1.183 3.45zM19.933 24.5q1.367 0.633 2.967 1.033t3.1 0.467v-3.567l-3.433-0.7-2.633 2.767z"></path>
</symbol>
<symbol id="icon-location_on_FILL0_wght400_GRAD0_opsz48" viewBox="0 0 32 32">
<path d="M16.003 15.667q0.964 0 1.647-0.686t0.683-1.65-0.686-1.647-1.65-0.683-1.647 0.686-0.683 1.65 0.686 1.647 1.65 0.683zM16 26.7q4.433-4.033 6.55-7.317t2.117-5.783q0-3.926-2.51-6.43t-6.157-2.503-6.157 2.503-2.51 6.43q0 2.5 2.167 5.783t6.5 7.317zM16 29.333q-5.367-4.567-8.017-8.483t-2.65-7.25q0-5 3.217-7.967t7.45-2.967 7.45 2.967 3.217 7.967q0 3.333-2.65 7.25t-8.017 8.483z"></path>
</symbol>
<symbol id="icon-mail_FILL0_wght400_GRAD0_opsz48" viewBox="0 0 32 32">
<path d="M4.667 26.667q-0.8 0-1.4-0.6t-0.6-1.4v-17.333q0-0.8 0.6-1.4t1.4-0.6h22.667q0.8 0 1.4 0.6t0.6 1.4v17.333q0 0.8-0.6 1.4t-1.4 0.6h-22.667zM16 16.6l-11.333-7.433v15.5h22.667v-15.5l-11.333 7.433zM16 14.6l11.2-7.267h-22.367l11.167 7.267zM4.667 9.167v0z"></path>
</symbol>
<symbol id="icon-arrow_drop_up_FILL0_wght400_GRAD0_opsz48" viewBox="0 0 32 32">
<path d="M9.333 18.667l6.667-6.7 6.667 6.7h-13.333z"></path>
</symbol>
<symbol id="icon-arrow_drop_down" viewBox="0 0 32 32">
<path d="M16 20l-6.667-6.633h13.333l-6.667 6.633z"></path>
</symbol>
<symbol id="icon-arrow_left" viewBox="0 0 32 32">
<path d="M18.667 22.667l-6.667-6.667 6.667-6.667v13.333z"></path>
</symbol>
<symbol id="icon_arrow_left" viewBox="0 0 32 32">
<path d="M18.7 24l-8.033-8.033 8.033-8.033 1.433 1.433-6.6 6.6 6.6 6.6-1.433 1.433z"></path>
</symbol>
<symbol id="icon-arrow_right" viewBox="0 0 32 32">
<path d="M17.667 15.967l-6.6-6.6 1.433-1.433 8.033 8.033-8.033 8.033-1.433-1.433 6.6-6.6z"></path>
</symbol>
<symbol id="icon-menu" viewBox="0 0 32 32">
<path d="M4 24v-2h24v2h-24zM4 17v-2h24v2h-24zM4 10v-2h24v2h-24z"></path>
</symbol>
<symbol id="icon-close" viewBox="0 0 32 32">
<path d="M8.3 25.1l-1.4-1.4 7.7-7.7-7.7-7.7 1.4-1.4 7.7 7.7 7.7-7.7 1.4 1.4-7.7 7.7 7.7 7.7-1.4 1.4-7.7-7.7-7.7 7.7z"></path>
</symbol>
<symbol id="icon-expand_more" viewBox="0 0 28 28">
<path d="M16 20.5l-8-8 1.433-1.433 6.567 6.6 6.567-6.567 1.433 1.433-8 7.967z"></path>
</symbol>
<symbol id="icon-arrow_right_list" viewBox="0 0 32 32">
<path d="M13.333 22.667v-13.333l6.667 6.667-6.667 6.667z"></path>
</symbol>
<symbol id="icon-benefits-icon-1" viewBox="0 0 30 32">
<path fill="#232536" style="fill: var(--color1, #232536)" d="M15.864 3.023l-13.38-2.113c-0.621-0.101-1.255 0.076-1.729 0.494-0.475 0.431-0.754 1.050-0.754 1.695v26.668c0 0.697 0.548 1.266 1.218 1.266h3.957v-6.645c0-1.228 0.95-2.215 2.131-2.215h3.044c1.182 0 2.131 0.987 2.131 2.215v6.645h5.174v-25.819c-0.002-1.090-0.758-2.012-1.791-2.191v0zM6.696 19.325h-1.826c-0.504 0-0.913-0.425-0.913-0.949s0.409-0.949 0.913-0.949h1.826c0.504 0 0.913 0.425 0.913 0.949s-0.409 0.949-0.913 0.949zM6.696 15.528h-1.826c-0.504 0-0.913-0.425-0.913-0.949s0.409-0.949 0.913-0.949h1.826c0.504 0 0.913 0.425 0.913 0.949s-0.409 0.949-0.913 0.949zM6.696 11.732h-1.826c-0.504 0-0.913-0.425-0.913-0.949s0.409-0.949 0.913-0.949h1.826c0.504 0 0.913 0.425 0.913 0.949s-0.409 0.949-0.913 0.949zM6.696 7.935h-1.826c-0.504 0-0.913-0.425-0.913-0.949s0.409-0.949 0.913-0.949h1.826c0.504 0 0.913 0.425 0.913 0.949s-0.409 0.949-0.913 0.949zM12.783 19.325h-1.826c-0.504 0-0.913-0.425-0.913-0.949s0.409-0.949 0.913-0.949h1.826c0.504 0 0.913 0.425 0.913 0.949s-0.409 0.949-0.913 0.949zM12.783 15.528h-1.826c-0.504 0-0.913-0.425-0.913-0.949s0.409-0.949 0.913-0.949h1.826c0.504 0 0.913 0.425 0.913 0.949s-0.409 0.949-0.913 0.949zM12.783 11.732h-1.826c-0.504 0-0.913-0.425-0.913-0.949s0.409-0.949 0.913-0.949h1.826c0.504 0 0.913 0.425 0.913 0.949s-0.409 0.949-0.913 0.949zM12.783 7.935h-1.826c-0.504 0-0.913-0.425-0.913-0.949s0.409-0.949 0.913-0.949h1.826c0.504 0 0.913 0.425 0.913 0.949s-0.409 0.949-0.913 0.949z"></path>
<path fill="#ffd050" style="fill: var(--color2, #ffd050)" d="M28.002 13.982l-9.243-1.932v18.984h8.762c1.252 0 2.272-1.017 2.272-2.268v-12.567c0-1.071-0.732-1.983-1.791-2.216zM24.925 27.145h-1.947c-0.537 0-0.974-0.435-0.974-0.972s0.436-0.972 0.974-0.972h1.947c0.537 0 0.974 0.435 0.974 0.972s-0.436 0.972-0.974 0.972zM24.925 23.258h-1.947c-0.537 0-0.974-0.435-0.974-0.972s0.436-0.972 0.974-0.972h1.947c0.537 0 0.974 0.435 0.974 0.972s-0.436 0.972-0.974 0.972zM24.925 19.37h-1.947c-0.537 0-0.974-0.435-0.974-0.972s0.436-0.972 0.974-0.972h1.947c0.537 0 0.974 0.435 0.974 0.972s-0.436 0.972-0.974 0.972z"></path>
</symbol>
<symbol id="icon-benefits-icon-2" viewBox="0 0 31 32">
<path fill="#ffd050" style="fill: var(--color2, #ffd050)" d="M7.849 8.573l-2.673 0.207c-0.744 0.057-1.406 0.447-1.818 1.070l-3.083 4.663c-0.312 0.472-0.362 1.063-0.133 1.58s0.699 0.878 1.258 0.964l2.448 0.379c0.573-3.039 1.943-6.070 4.001-8.862v0z"></path>
<path fill="#ffd050" style="fill: var(--color2, #ffd050)" d="M13.662 27.248l0.379 2.448c0.086 0.559 0.447 1.029 0.964 1.258 0.215 0.095 0.443 0.142 0.67 0.142 0.318 0 0.635-0.093 0.91-0.275l4.663-3.083c0.622-0.411 1.012-1.074 1.070-1.818l0.206-2.673c-2.793 2.058-5.824 3.428-8.863 4.001v0z"></path>
<path fill="#ffd050" style="fill: var(--color2, #ffd050)" d="M12.741 25.551c0.085 0 0.17-0.007 0.256-0.021 1.273-0.213 2.5-0.571 3.671-1.041l-10.060-10.060c-0.469 1.171-0.828 2.398-1.041 3.671-0.084 0.502 0.084 1.013 0.444 1.373l5.614 5.614c0.299 0.299 0.702 0.465 1.117 0.465z"></path>
<path fill="#232536" style="fill: var(--color1, #232536)" d="M28.397 13.92c2.462-4.76 2.553-9.789 2.424-12.148-0.044-0.808-0.688-1.453-1.497-1.497-0.384-0.021-0.839-0.036-1.352-0.036-2.638 0-6.811 0.4-10.796 2.46-3.166 1.638-7.319 5.244-9.769 9.984 0.029 0.023 0.057 0.047 0.084 0.073l10.848 10.848c0.027 0.027 0.050 0.055 0.073 0.084 4.74-2.45 8.346-6.602 9.984-9.769v0zM17.942 6.763c1.762-1.762 4.63-1.762 6.392 0 0.854 0.854 1.324 1.989 1.324 3.196s-0.47 2.342-1.324 3.196c-0.881 0.881-2.039 1.322-3.196 1.322s-2.315-0.441-3.196-1.322c-0.854-0.854-1.324-1.989-1.324-3.196s0.47-2.342 1.324-3.196v0z"></path>
<path fill="#232536" style="fill: var(--color1, #232536)" d="M19.221 11.877c1.057 1.057 2.778 1.058 3.835 0 0.512-0.512 0.794-1.193 0.794-1.918s-0.282-1.405-0.794-1.918c-0.529-0.529-1.223-0.793-1.918-0.793s-1.389 0.264-1.918 0.793c-0.512 0.512-0.794 1.193-0.794 1.918s0.282 1.405 0.794 1.918z"></path>
<path fill="#ffd050" style="fill: var(--color2, #ffd050)" d="M0.922 25.668c0.231 0 0.463-0.088 0.639-0.265l2.951-2.952c0.353-0.353 0.353-0.925 0-1.278s-0.925-0.353-1.278 0l-2.951 2.951c-0.353 0.353-0.353 0.925 0 1.279 0.177 0.177 0.408 0.265 0.639 0.265z"></path>
<path fill="#ffd050" style="fill: var(--color2, #ffd050)" d="M7.218 23.879c-0.353-0.353-0.925-0.353-1.278 0l-5.675 5.675c-0.353 0.353-0.353 0.925 0 1.279 0.177 0.177 0.408 0.265 0.639 0.265s0.463-0.088 0.639-0.265l5.674-5.674c0.353-0.353 0.353-0.925 0-1.279v0z"></path>
<path fill="#ffd050" style="fill: var(--color2, #ffd050)" d="M8.643 26.583l-2.951 2.951c-0.353 0.353-0.353 0.925 0 1.279 0.177 0.176 0.408 0.265 0.639 0.265s0.463-0.088 0.639-0.265l2.952-2.952c0.353-0.353 0.353-0.925 0-1.278s-0.925-0.353-1.278 0z"></path>
</symbol>
<symbol id="icon-benefits-icon-3" viewBox="0 0 26 32">
<path fill="#232536" style="fill: var(--color1, #232536)" d="M5.705 20.072h-2.882c-1.039 0-1.885 1.019-1.885 2.272v7.358c0 0.769 0.519 1.395 1.157 1.395h4.336c0.638 0 1.157-0.626 1.157-1.395v-7.358c0-1.253-0.845-2.272-1.885-2.272z"></path>
<path fill="#232536" style="fill: var(--color1, #232536)" d="M14.163 15.603h-2.882c-1.039 0-1.885 1.019-1.885 2.272v11.827c0 0.769 0.519 1.395 1.157 1.395h4.336c0.638 0 1.157-0.626 1.157-1.395v-11.827c0-1.253-0.845-2.272-1.885-2.272z"></path>
<path fill="#232536" style="fill: var(--color1, #232536)" d="M22.78 10.511h-2.882c-1.039 0-1.885 1.019-1.885 2.271v16.919c0 0.769 0.519 1.395 1.157 1.395h4.336c0.638 0 1.157-0.626 1.157-1.395v-16.919c0-1.252-0.845-2.271-1.885-2.271z"></path>
<path fill="#ffd050" style="fill: var(--color2, #ffd050)" d="M20.485 1.099c-0.353-0.601-0.926-0.918-1.534-0.851l-5.443 0.607c-0.608 0.068-1.123 0.507-1.378 1.175s-0.197 1.426 0.155 2.026l0.304 0.517-6.762 5.632c-0.479 0.409-0.798 1.018-0.897 1.716s0.033 1.4 0.372 1.978c0.339 0.578 0.845 0.962 1.424 1.081 0.125 0.026 0.251 0.039 0.376 0.039 0.449 0 0.887-0.166 1.261-0.484l6.766-5.635 0.314 0.534c0.321 0.547 0.826 0.86 1.373 0.86 0.053 0 0.107-0.003 0.161-0.009 0.608-0.068 1.123-0.507 1.378-1.175l2.285-5.984c0.255-0.668 0.197-1.426-0.156-2.026z"></path>
</symbol>
<symbol id="icon-benefits-icon-4" viewBox="0 0 32 32">
<path fill="#232536" style="fill: var(--color1, #232536)" d="M20.69 9.375c0 1.034 0.841 1.875 1.875 1.875h5.574c-0.101-1.319-0.407-2.581-0.897-3.75h-4.677c-1.034 0-1.875 0.841-1.875 1.875z"></path>
<path fill="#ffd050" style="fill: var(--color2, #ffd050)" d="M8.503 32h11.25c0.518 0 0.937-0.419 0.937-0.937v-4.813h1.875v-6.094l-9.374-7.031h-8.438c-0.518 0-0.938 0.419-0.938 0.937 0 3.321 1.361 6.501 3.75 8.795v8.206c0 0.518 0.419 0.937 0.938 0.937v0z"></path>
<path fill="#232536" style="fill: var(--color1, #232536)" d="M16.003 0c-0.518 0-0.937 0.419-0.937 0.938v0.938h-3.923c-0.388-1.089-1.419-1.875-2.64-1.875-1.551 0-2.813 1.262-2.813 2.813s1.262 2.813 2.813 2.813c1.221 0 2.252-0.786 2.64-1.875h3.923v3.75h-9.548c-0.388-1.089-1.419-1.875-2.64-1.875-1.551 0-2.875 1.262-2.875 2.813s1.324 2.813 2.875 2.813c1.221 0 2.252-0.786 2.64-1.875h9.548v2.813l9 6.75c0.236 0.177 0.375 0.455 0.375 0.75v6.563h0.937c1.551 0 2.813-1.262 2.813-2.812v-4.688h2.875c0.346 0 0.664-0.19 0.827-0.495s0.145-0.675-0.047-0.962l-2.841-4.167h-6.439c-2.068 0-3.75-1.682-3.75-3.75s1.682-3.75 3.75-3.75h3.688c-2.169-3.376-5.947-5.625-10.25-5.625v0z"></path>
</symbol>

<symbol id="icon-mail" viewBox="0 0 32 32">
<path  d="M26.453 9.687l-10.453 7.693-10.453-7.693M4.313 7.14c-0.354 0-0.693 0.14-0.943 0.391s-0.391 0.589-0.391 0.943v15.073c0 0.354 0.14 0.693 0.391 0.943s0.589 0.391 0.943 0.391h23.373c0.354 0 0.693-0.14 0.943-0.391s0.391-0.589 0.391-0.943v-15.093c0-0.354-0.141-0.693-0.391-0.943s-0.589-0.391-0.943-0.391l-23.373 0.020z"></path>
</symbol>

<symbol id="icon-phone" viewBox="0 0 32 32">
<path  d="M27.598 20.266l-5.903-2.641c-0.229-0.099-0.479-0.139-0.727-0.118s-0.487 0.105-0.695 0.243c-0.017 0.011-0.032 0.022-0.047 0.035l-3.1 2.643c-0.069 0.042-0.147 0.066-0.228 0.071s-0.161-0.011-0.235-0.045c-2.030-0.98-4.131-3.065-5.111-5.071-0.035-0.073-0.051-0.153-0.047-0.233s0.028-0.159 0.069-0.228l2.65-3.151c0.013-0.015 0.024-0.031 0.035-0.047 0.137-0.208 0.22-0.446 0.242-0.694s-0.018-0.497-0.117-0.726l-2.646-5.893c-0.128-0.298-0.349-0.547-0.63-0.709s-0.608-0.228-0.93-0.189c-1.573 0.207-3.017 0.98-4.062 2.174s-1.619 2.728-1.616 4.314c0 9.65 7.85 17.5 17.5 17.5 1.587 0.003 3.12-0.571 4.314-1.616s1.967-2.489 2.174-4.062c0.039-0.321-0.027-0.645-0.187-0.926s-0.407-0.502-0.704-0.63zM27.5 21.697c-0.177 1.332-0.832 2.555-1.844 3.438s-2.312 1.369-3.656 1.364c-9.097 0-16.5-7.402-16.5-16.5-0.005-1.344 0.48-2.643 1.364-3.656s2.106-1.668 3.438-1.844c0.020-0.001 0.040-0.001 0.060 0 0.099 0.001 0.195 0.031 0.276 0.086s0.145 0.134 0.182 0.225l2.639 5.893c0.031 0.072 0.044 0.15 0.039 0.228s-0.028 0.154-0.068 0.222l-2.649 3.15c-0.012 0.016-0.025 0.031-0.036 0.049-0.141 0.216-0.224 0.464-0.241 0.722s0.032 0.515 0.144 0.747c1.086 2.224 3.326 4.448 5.575 5.534 0.234 0.111 0.493 0.159 0.751 0.14s0.507-0.105 0.723-0.248l0.046-0.035 3.104-2.64c0.066-0.041 0.141-0.065 0.219-0.071s0.155 0.007 0.227 0.037l5.901 2.645c0.1 0.041 0.183 0.114 0.238 0.207s0.078 0.201 0.067 0.308z"></path>
</symbol>

<symbol id="icon-location" viewBox="0 0 30 32">
<path  d="M14.815 30.815l-0.62-0.701c-0.387-0.39-9.454-11.144-9.454-17.612 0-5.611 4.495-10.131 10.074-10.131s10.074 4.52 10.074 10.131c0 6.468-9.067 17.223-9.454 17.69l-0.62 0.623zM14.815 3.929c-4.727 0-8.524 3.819-8.524 8.572 0 4.988 6.509 13.404 8.524 15.898 2.015-2.494 8.524-10.91 8.524-15.898 0-4.754-3.797-8.572-8.524-8.572z"></path>
<path  d="M14.816 16.4c-2.17 0-3.875-1.714-3.875-3.897s1.705-3.896 3.875-3.896c2.17 0 3.875 1.714 3.875 3.896s-1.705 3.897-3.875 3.897zM14.816 10.165c-1.317 0-2.325 1.013-2.325 2.338s1.007 2.338 2.325 2.338c1.317 0 2.325-1.013 2.325-2.338s-1.007-2.338-2.325-2.338z"></path>
</symbol>



<symbol id="icon-linkedin" viewBox="0 0 30 32">
<path  d="M30.235 31.931v-0.001h0.008v-11.431c0-5.592-1.168-9.9-7.512-9.9-3.049 0-5.096 1.725-5.931 3.36h-0.088v-2.838h-6.015v20.809h6.263v-10.304c0-2.713 0.499-5.336 3.759-5.336 3.212 0 3.26 3.096 3.26 5.51v10.131h6.257z"></path>
<path  d="M0.498 11.122h6.27v20.809h-6.27v-20.809z"></path>
<path  d="M3.632 0.762c-2.005 0-3.632 1.677-3.632 3.743s1.627 3.778 3.632 3.778c2.005 0 3.632-1.712 3.632-3.778-0.001-2.066-1.628-3.743-3.632-3.743v0z"></path>
</symbol>

<symbol id="icon-instagram" viewBox="0 0 30 32">
<path  d="M30.214 9.926c-0.071-1.656-0.331-2.795-0.703-3.781-0.384-1.047-0.975-1.985-1.749-2.764-0.756-0.792-1.672-1.407-2.676-1.796-0.963-0.384-2.062-0.651-3.669-0.724-1.619-0.079-2.133-0.098-6.239-0.098s-4.62 0.018-6.233 0.091c-1.607 0.073-2.712 0.341-3.669 0.724-1.016 0.396-1.926 1.005-2.682 1.802-0.768 0.779-1.365 1.723-1.743 2.758-0.372 0.993-0.632 2.125-0.703 3.781-0.077 1.668-0.095 2.198-0.095 6.43s0.018 4.761 0.089 6.424c0.071 1.656 0.331 2.795 0.703 3.781 0.384 1.047 0.981 1.985 1.749 2.764 0.756 0.792 1.672 1.407 2.676 1.796 0.963 0.384 2.062 0.651 3.669 0.724 1.613 0.073 2.127 0.091 6.233 0.091s4.62-0.018 6.233-0.091c1.607-0.073 2.712-0.341 3.669-0.724 2.033-0.81 3.639-2.466 4.425-4.56 0.372-0.992 0.632-2.125 0.703-3.781 0.071-1.662 0.089-2.192 0.089-6.424s-0.006-4.761-0.077-6.424zM27.491 22.651c-0.065 1.522-0.313 2.344-0.52 2.892-0.508 1.358-1.554 2.436-2.871 2.959-0.532 0.213-1.335 0.469-2.806 0.536-1.595 0.073-2.074 0.091-6.109 0.091s-4.52-0.018-6.109-0.091c-1.477-0.067-2.275-0.323-2.806-0.536-0.656-0.25-1.252-0.646-1.737-1.163-0.502-0.505-0.886-1.114-1.129-1.79-0.207-0.548-0.455-1.376-0.52-2.892-0.071-1.644-0.089-2.137-0.089-6.296s0.018-4.658 0.089-6.296c0.065-1.522 0.313-2.344 0.52-2.892 0.242-0.676 0.626-1.291 1.135-1.79 0.49-0.518 1.081-0.913 1.737-1.163 0.532-0.213 1.335-0.469 2.806-0.536 1.595-0.073 2.074-0.091 6.109-0.091 4.041 0 4.52 0.018 6.109 0.091 1.477 0.067 2.275 0.323 2.806 0.536 0.656 0.25 1.252 0.645 1.737 1.163 0.502 0.505 0.886 1.114 1.129 1.79 0.207 0.548 0.455 1.376 0.52 2.892 0.071 1.644 0.089 2.137 0.089 6.296s-0.018 4.646-0.089 6.29z"></path>
<path  d="M15.178 8.342c-4.289 0-7.769 3.586-7.769 8.007s3.48 8.007 7.769 8.007c4.289 0 7.769-3.586 7.769-8.007s-3.48-8.007-7.769-8.007zM15.178 21.543c-2.783 0-5.040-2.326-5.040-5.194s2.257-5.194 5.040-5.194c2.783 0 5.040 2.326 5.040 5.194s-2.257 5.194-5.040 5.194z"></path>
<path  d="M25.068 8.025c0 1.032-0.812 1.869-1.814 1.869s-1.814-0.837-1.814-1.869c0-1.032 0.812-1.869 1.814-1.869s1.814 0.837 1.814 1.869z"></path>
</symbol>

<symbol id="icon-facebook" viewBox="0 0 30 32">
<path  d="M20.158 5.937h2.761v-4.956c-0.476-0.068-2.115-0.219-4.022-0.219-3.981 0-6.708 2.581-6.708 7.323v4.365h-4.393v5.54h4.393v13.94h5.386v-13.939h4.215l0.669-5.54h-4.886v-3.817c0.001-1.601 0.42-2.697 2.585-2.697z"></path>
<symbol id="icon-btn-arrow" viewBox="0 0 31 32">
<path fill="none" stroke="#f8f8f8" style="stroke: var(--color1, #f8f8f8)" stroke-linejoin="round" stroke-linecap="round" stroke-miterlimit="4" stroke-width="1.9231" d="M7.692 24.974l16.667-16.667M24.359 8.308v16M24.359 8.308h-16"></path>
</symbol>
<symbol id="ok-icon" viewBox="0 0 32 32">
<path fill="#ff7b47" style="fill: var(--color1, #ff7b47)" d="M26.78 2.644l-16.305 16.305-5.288-5.288-5.186 5.187 10.508 10.508 21.492-21.492-5.22-5.22z"></path>
</symbol>
  </defs>
</svg>