<?xml version="1.0" standalone="no"?>
<!DOCTYPE svg PUBLIC "-//W3C//DTD SVG 20010904//EN"
 "http://www.w3.org/TR/2001/REC-SVG-20010904/DTD/svg10.dtd">
<svg version="1.0" xmlns="http://www.w3.org/2000/svg"
 width="575.000000pt" height="575.000000pt" viewBox="0 0 575.000000 575.000000"
 preserveAspectRatio="xMidYMid meet">

<g transform="translate(0.000000,575.000000) scale(0.100000,-0.100000)"
fill="#000000" stroke="none">
<path d="M1669 4406 c-169 -47 -298 -184 -335 -355 -17 -84 -20 -992 -3 -1087
25 -138 119 -263 241 -323 35 -17 189 -67 343 -111 154 -44 288 -83 298 -86
16 -5 17 25 17 530 l0 536 478 0 c363 1 496 4 555 15 141 25 307 122 386 227
34 45 374 618 388 656 7 18 -2301 16 -2368 -2z"/>
<path d="M3518 2768 l-3 -533 -525 -5 c-576 -6 -550 -4 -685 -73 -59 -30 -101
-62 -160 -121 -73 -74 -95 -107 -255 -385 -96 -167 -177 -308 -178 -313 -2 -5
510 -7 1185 -6 l1189 3 75 37 c138 68 236 200 259 348 13 87 13 965 -1 1050
-21 137 -118 274 -235 333 -44 22 -623 197 -653 197 -8 0 -12 -153 -13 -532z"/>
</g>
</svg>
